<mxfile host="65bd71144e" pages="21">
    <diagram id="aM1RWBUm3dRHckOOb5zb" name="15 - mount">
        <mxGraphModel dx="832" dy="382" grid="1" gridSize="10" guides="1" tooltips="1" connect="1" arrows="1" fold="1" page="1" pageScale="1" pageWidth="1920" pageHeight="1200" math="0" shadow="0">
            <root>
                <mxCell id="S7PwnjYwvf9L2ZSWg-45-0"/>
                <mxCell id="S7PwnjYwvf9L2ZSWg-45-1" parent="S7PwnjYwvf9L2ZSWg-45-0"/>
                <mxCell id="5hh5XcC5z7eh3gvhOZ0s-0" value="Container" style="rounded=0;whiteSpace=wrap;html=1;strokeColor=#9673a6;fontSize=18;fillColor=#e1d5e7;fontStyle=0" parent="S7PwnjYwvf9L2ZSWg-45-1" vertex="1">
                    <mxGeometry x="610" y="340" width="170" height="60" as="geometry"/>
                </mxCell>
                <mxCell id="5hh5XcC5z7eh3gvhOZ0s-4" style="edgeStyle=orthogonalEdgeStyle;rounded=0;orthogonalLoop=1;jettySize=auto;html=1;exitX=0.5;exitY=0;exitDx=0;exitDy=0;strokeWidth=2;fontSize=13;fontColor=#000000;" parent="S7PwnjYwvf9L2ZSWg-45-1" source="5hh5XcC5z7eh3gvhOZ0s-1" edge="1">
                    <mxGeometry relative="1" as="geometry">
                        <mxPoint x="695" y="480" as="targetPoint"/>
                    </mxGeometry>
                </mxCell>
                <mxCell id="5hh5XcC5z7eh3gvhOZ0s-1" value="Marketing" style="rounded=0;whiteSpace=wrap;html=1;strokeColor=#6c8ebf;fontSize=18;fillColor=#dae8fc;fontStyle=0" parent="S7PwnjYwvf9L2ZSWg-45-1" vertex="1">
                    <mxGeometry x="610" y="520" width="170" height="60" as="geometry"/>
                </mxCell>
                <mxCell id="5hh5XcC5z7eh3gvhOZ0s-2" value="&lt;i style=&quot;font-size: 13px;&quot;&gt;Uses React&lt;/i&gt;" style="text;html=1;strokeColor=none;fillColor=none;align=right;verticalAlign=middle;whiteSpace=wrap;rounded=0;fontSize=13;fontColor=#000000;" parent="S7PwnjYwvf9L2ZSWg-45-1" vertex="1">
                    <mxGeometry x="510" y="360" width="90" height="20" as="geometry"/>
                </mxCell>
                <mxCell id="5hh5XcC5z7eh3gvhOZ0s-3" value="&lt;i style=&quot;font-size: 13px;&quot;&gt;Uses React&lt;/i&gt;" style="text;html=1;strokeColor=none;fillColor=none;align=right;verticalAlign=middle;whiteSpace=wrap;rounded=0;fontSize=13;fontColor=#000000;" parent="S7PwnjYwvf9L2ZSWg-45-1" vertex="1">
                    <mxGeometry x="510" y="540" width="90" height="20" as="geometry"/>
                </mxCell>
                <mxCell id="5hh5XcC5z7eh3gvhOZ0s-7" style="edgeStyle=orthogonalEdgeStyle;rounded=0;orthogonalLoop=1;jettySize=auto;html=1;exitX=0.5;exitY=0;exitDx=0;exitDy=0;entryX=0.5;entryY=1;entryDx=0;entryDy=0;strokeWidth=2;fontSize=13;fontColor=#000000;" parent="S7PwnjYwvf9L2ZSWg-45-1" source="5hh5XcC5z7eh3gvhOZ0s-6" target="5hh5XcC5z7eh3gvhOZ0s-0" edge="1">
                    <mxGeometry relative="1" as="geometry"/>
                </mxCell>
                <mxCell id="5hh5XcC5z7eh3gvhOZ0s-6" value="MarketingApp React Component" style="rounded=0;whiteSpace=wrap;html=1;strokeColor=#666666;fontSize=13;fontColor=#333333;align=center;fontStyle=2;fillColor=#f5f5f5;" parent="S7PwnjYwvf9L2ZSWg-45-1" vertex="1">
                    <mxGeometry x="620" y="440" width="150" height="40" as="geometry"/>
                </mxCell>
                <mxCell id="5hh5XcC5z7eh3gvhOZ0s-8" value="Why aren't we doing this?" style="rounded=0;whiteSpace=wrap;html=1;strokeColor=#b85450;fontSize=15;align=center;fillColor=#f8cecc;fontStyle=1" parent="S7PwnjYwvf9L2ZSWg-45-1" vertex="1">
                    <mxGeometry x="840" y="425" width="140" height="70" as="geometry"/>
                </mxCell>
            </root>
        </mxGraphModel>
    </diagram>
    <diagram id="-AGY1VRKFmPlRHUiGSqX" name="14 - container">
        <mxGraphModel dx="832" dy="382" grid="1" gridSize="10" guides="1" tooltips="1" connect="1" arrows="1" fold="1" page="1" pageScale="1" pageWidth="1920" pageHeight="1200" math="0" shadow="0">
            <root>
                <mxCell id="tSACii-eadMHFVOULgiE-0"/>
                <mxCell id="tSACii-eadMHFVOULgiE-1" parent="tSACii-eadMHFVOULgiE-0"/>
                <mxCell id="whzRL5W_BDY6K6I1wgnb-0" value="Near-zero coupling between container and child apps" style="rounded=0;whiteSpace=wrap;html=1;fontSize=17;align=center;fillColor=#dae8fc;strokeColor=#6c8ebf;" parent="tSACii-eadMHFVOULgiE-1" vertex="1">
                    <mxGeometry x="565" y="340" width="430" height="50" as="geometry"/>
                </mxCell>
                <mxCell id="whzRL5W_BDY6K6I1wgnb-1" value="Inflexible Requirement #2" style="text;html=1;strokeColor=none;fillColor=none;align=center;verticalAlign=middle;whiteSpace=wrap;rounded=0;fontSize=23;fontColor=#000000;fontStyle=1" parent="tSACii-eadMHFVOULgiE-1" vertex="1">
                    <mxGeometry x="606.25" y="300" width="347.5" height="30" as="geometry"/>
                </mxCell>
                <mxCell id="whzRL5W_BDY6K6I1wgnb-2" value="Container shouldn't assume that a child is using a particular framework" style="rounded=0;whiteSpace=wrap;html=1;fontSize=17;fontColor=#333333;align=center;fillColor=#f5f5f5;strokeColor=#666666;" parent="tSACii-eadMHFVOULgiE-1" vertex="1">
                    <mxGeometry x="565" y="420" width="430" height="50" as="geometry"/>
                </mxCell>
                <mxCell id="whzRL5W_BDY6K6I1wgnb-3" value="Any necessary communication done with callbacks or simple events" style="rounded=0;whiteSpace=wrap;html=1;fontSize=17;fontColor=#333333;align=center;fillColor=#f5f5f5;strokeColor=#666666;" parent="tSACii-eadMHFVOULgiE-1" vertex="1">
                    <mxGeometry x="565" y="480" width="430" height="50" as="geometry"/>
                </mxCell>
            </root>
        </mxGraphModel>
    </diagram>
    <diagram id="M33wzd9xky0NlboW3MSI" name="01 - mocks">
        <mxGraphModel dx="832" dy="382" grid="1" gridSize="10" guides="1" tooltips="1" connect="1" arrows="1" fold="1" page="1" pageScale="1" pageWidth="1920" pageHeight="1200" math="0" shadow="0">
            <root>
                <mxCell id="0"/>
                <mxCell id="1" parent="0"/>
                <mxCell id="cDbEW9LaPRL-9h1o7jgT-1" value="" style="strokeWidth=1;shadow=0;dashed=0;align=center;html=1;shape=mxgraph.mockup.containers.browserWindow;rSize=0;strokeColor=#666666;strokeColor2=#008cff;strokeColor3=#c4c4c4;mainText=,;recursiveResize=0;" parent="1" vertex="1">
                    <mxGeometry x="540" y="330" width="370" height="380" as="geometry"/>
                </mxCell>
                <mxCell id="cDbEW9LaPRL-9h1o7jgT-2" value="Page 1" style="strokeWidth=1;shadow=0;dashed=0;align=center;html=1;shape=mxgraph.mockup.containers.anchor;fontSize=17;fontColor=#666666;align=left;" parent="cDbEW9LaPRL-9h1o7jgT-1" vertex="1">
                    <mxGeometry x="60" y="12" width="110" height="26" as="geometry"/>
                </mxCell>
                <mxCell id="cDbEW9LaPRL-9h1o7jgT-3" value="" style="strokeWidth=1;shadow=0;dashed=0;align=center;html=1;shape=mxgraph.mockup.containers.anchor;rSize=0;fontSize=17;fontColor=#666666;align=left;" parent="cDbEW9LaPRL-9h1o7jgT-1" vertex="1">
                    <mxGeometry x="130" y="60" width="250" height="26" as="geometry"/>
                </mxCell>
                <mxCell id="cDbEW9LaPRL-9h1o7jgT-4" value="" style="rounded=0;whiteSpace=wrap;html=1;" parent="cDbEW9LaPRL-9h1o7jgT-1" vertex="1">
                    <mxGeometry y="110" width="370" height="40" as="geometry"/>
                </mxCell>
                <mxCell id="cDbEW9LaPRL-9h1o7jgT-5" value="App" style="text;html=1;strokeColor=none;fillColor=none;align=center;verticalAlign=middle;whiteSpace=wrap;rounded=0;" parent="cDbEW9LaPRL-9h1o7jgT-1" vertex="1">
                    <mxGeometry x="20" y="120" width="40" height="20" as="geometry"/>
                </mxCell>
                <mxCell id="cDbEW9LaPRL-9h1o7jgT-6" value="Login" style="text;html=1;strokeColor=none;fillColor=none;align=center;verticalAlign=middle;whiteSpace=wrap;rounded=0;" parent="cDbEW9LaPRL-9h1o7jgT-1" vertex="1">
                    <mxGeometry x="317.5" y="120" width="40" height="20" as="geometry"/>
                </mxCell>
                <mxCell id="cDbEW9LaPRL-9h1o7jgT-7" value="Welcome" style="text;html=1;strokeColor=none;fillColor=none;align=center;verticalAlign=middle;whiteSpace=wrap;rounded=0;fontSize=23;" parent="cDbEW9LaPRL-9h1o7jgT-1" vertex="1">
                    <mxGeometry x="165" y="180" width="40" height="20" as="geometry"/>
                </mxCell>
                <mxCell id="cDbEW9LaPRL-9h1o7jgT-8" value="See pricing" style="rounded=1;whiteSpace=wrap;html=1;" parent="cDbEW9LaPRL-9h1o7jgT-1" vertex="1">
                    <mxGeometry x="122.5" y="280" width="125" height="30" as="geometry"/>
                </mxCell>
                <mxCell id="cDbEW9LaPRL-9h1o7jgT-9" value="app.com/" style="text;html=1;strokeColor=none;fillColor=none;align=left;verticalAlign=middle;whiteSpace=wrap;rounded=0;fontSize=14;fontStyle=1" parent="cDbEW9LaPRL-9h1o7jgT-1" vertex="1">
                    <mxGeometry x="130" y="63" width="150" height="20" as="geometry"/>
                </mxCell>
                <mxCell id="cDbEW9LaPRL-9h1o7jgT-10" value="Use our awesome dashboard" style="text;html=1;strokeColor=none;fillColor=none;align=center;verticalAlign=middle;whiteSpace=wrap;rounded=0;fontSize=23;" parent="cDbEW9LaPRL-9h1o7jgT-1" vertex="1">
                    <mxGeometry x="82.5" y="220" width="205" height="20" as="geometry"/>
                </mxCell>
                <mxCell id="cDbEW9LaPRL-9h1o7jgT-11" value="" style="strokeWidth=1;shadow=0;dashed=0;align=center;html=1;shape=mxgraph.mockup.containers.browserWindow;rSize=0;strokeColor=#666666;strokeColor2=#008cff;strokeColor3=#c4c4c4;mainText=,;recursiveResize=0;" parent="1" vertex="1">
                    <mxGeometry x="960" y="330" width="370" height="380" as="geometry"/>
                </mxCell>
                <mxCell id="cDbEW9LaPRL-9h1o7jgT-12" value="Page 1" style="strokeWidth=1;shadow=0;dashed=0;align=center;html=1;shape=mxgraph.mockup.containers.anchor;fontSize=17;fontColor=#666666;align=left;" parent="cDbEW9LaPRL-9h1o7jgT-11" vertex="1">
                    <mxGeometry x="60" y="12" width="110" height="26" as="geometry"/>
                </mxCell>
                <mxCell id="cDbEW9LaPRL-9h1o7jgT-13" value="" style="strokeWidth=1;shadow=0;dashed=0;align=center;html=1;shape=mxgraph.mockup.containers.anchor;rSize=0;fontSize=17;fontColor=#666666;align=left;" parent="cDbEW9LaPRL-9h1o7jgT-11" vertex="1">
                    <mxGeometry x="130" y="60" width="250" height="26" as="geometry"/>
                </mxCell>
                <mxCell id="cDbEW9LaPRL-9h1o7jgT-14" value="" style="rounded=0;whiteSpace=wrap;html=1;" parent="cDbEW9LaPRL-9h1o7jgT-11" vertex="1">
                    <mxGeometry y="110" width="370" height="40" as="geometry"/>
                </mxCell>
                <mxCell id="cDbEW9LaPRL-9h1o7jgT-15" value="App" style="text;html=1;strokeColor=none;fillColor=none;align=center;verticalAlign=middle;whiteSpace=wrap;rounded=0;" parent="cDbEW9LaPRL-9h1o7jgT-11" vertex="1">
                    <mxGeometry x="20" y="120" width="40" height="20" as="geometry"/>
                </mxCell>
                <mxCell id="cDbEW9LaPRL-9h1o7jgT-16" value="Login" style="text;html=1;strokeColor=none;fillColor=none;align=center;verticalAlign=middle;whiteSpace=wrap;rounded=0;" parent="cDbEW9LaPRL-9h1o7jgT-11" vertex="1">
                    <mxGeometry x="317.5" y="120" width="40" height="20" as="geometry"/>
                </mxCell>
                <mxCell id="cDbEW9LaPRL-9h1o7jgT-17" value="Pricing" style="text;html=1;strokeColor=none;fillColor=none;align=center;verticalAlign=middle;whiteSpace=wrap;rounded=0;fontSize=23;" parent="cDbEW9LaPRL-9h1o7jgT-11" vertex="1">
                    <mxGeometry x="165" y="180" width="40" height="20" as="geometry"/>
                </mxCell>
                <mxCell id="cDbEW9LaPRL-9h1o7jgT-18" value="" style="rounded=0;whiteSpace=wrap;html=1;fontSize=14;" parent="cDbEW9LaPRL-9h1o7jgT-11" vertex="1">
                    <mxGeometry x="50" y="220" width="120" height="100" as="geometry"/>
                </mxCell>
                <mxCell id="cDbEW9LaPRL-9h1o7jgT-19" value="Free" style="text;html=1;strokeColor=none;fillColor=none;align=center;verticalAlign=middle;whiteSpace=wrap;rounded=0;fontSize=17;" parent="cDbEW9LaPRL-9h1o7jgT-11" vertex="1">
                    <mxGeometry x="90" y="230" width="40" height="20" as="geometry"/>
                </mxCell>
                <mxCell id="cDbEW9LaPRL-9h1o7jgT-20" value="Sign Up" style="rounded=1;whiteSpace=wrap;html=1;fontSize=14;" parent="cDbEW9LaPRL-9h1o7jgT-11" vertex="1">
                    <mxGeometry x="62.5" y="280" width="95" height="30" as="geometry"/>
                </mxCell>
                <mxCell id="cDbEW9LaPRL-9h1o7jgT-21" value="" style="rounded=0;whiteSpace=wrap;html=1;fontSize=14;" parent="cDbEW9LaPRL-9h1o7jgT-11" vertex="1">
                    <mxGeometry x="205" y="220" width="120" height="100" as="geometry"/>
                </mxCell>
                <mxCell id="cDbEW9LaPRL-9h1o7jgT-22" value="$30/month" style="text;html=1;strokeColor=none;fillColor=none;align=center;verticalAlign=middle;whiteSpace=wrap;rounded=0;fontSize=17;" parent="cDbEW9LaPRL-9h1o7jgT-11" vertex="1">
                    <mxGeometry x="245" y="230" width="40" height="20" as="geometry"/>
                </mxCell>
                <mxCell id="cDbEW9LaPRL-9h1o7jgT-23" value="Sign Up" style="rounded=1;whiteSpace=wrap;html=1;fontSize=14;" parent="cDbEW9LaPRL-9h1o7jgT-11" vertex="1">
                    <mxGeometry x="217.5" y="280" width="95" height="30" as="geometry"/>
                </mxCell>
                <mxCell id="cDbEW9LaPRL-9h1o7jgT-24" value="app.com/pricing" style="text;html=1;strokeColor=none;fillColor=none;align=left;verticalAlign=middle;whiteSpace=wrap;rounded=0;fontSize=14;fontStyle=1" parent="cDbEW9LaPRL-9h1o7jgT-11" vertex="1">
                    <mxGeometry x="130" y="63" width="150" height="20" as="geometry"/>
                </mxCell>
                <mxCell id="cDbEW9LaPRL-9h1o7jgT-25" value="" style="strokeWidth=1;shadow=0;dashed=0;align=center;html=1;shape=mxgraph.mockup.containers.browserWindow;rSize=0;strokeColor=#666666;strokeColor2=#008cff;strokeColor3=#c4c4c4;mainText=,;recursiveResize=0;" parent="1" vertex="1">
                    <mxGeometry x="1380" y="330" width="370" height="380" as="geometry"/>
                </mxCell>
                <mxCell id="cDbEW9LaPRL-9h1o7jgT-26" value="Page 1" style="strokeWidth=1;shadow=0;dashed=0;align=center;html=1;shape=mxgraph.mockup.containers.anchor;fontSize=17;fontColor=#666666;align=left;" parent="cDbEW9LaPRL-9h1o7jgT-25" vertex="1">
                    <mxGeometry x="60" y="12" width="110" height="26" as="geometry"/>
                </mxCell>
                <mxCell id="cDbEW9LaPRL-9h1o7jgT-27" value="" style="strokeWidth=1;shadow=0;dashed=0;align=center;html=1;shape=mxgraph.mockup.containers.anchor;rSize=0;fontSize=17;fontColor=#666666;align=left;" parent="cDbEW9LaPRL-9h1o7jgT-25" vertex="1">
                    <mxGeometry x="130" y="60" width="250" height="26" as="geometry"/>
                </mxCell>
                <mxCell id="cDbEW9LaPRL-9h1o7jgT-28" value="" style="rounded=0;whiteSpace=wrap;html=1;" parent="cDbEW9LaPRL-9h1o7jgT-25" vertex="1">
                    <mxGeometry y="110" width="370" height="40" as="geometry"/>
                </mxCell>
                <mxCell id="cDbEW9LaPRL-9h1o7jgT-29" value="App" style="text;html=1;strokeColor=none;fillColor=none;align=center;verticalAlign=middle;whiteSpace=wrap;rounded=0;" parent="cDbEW9LaPRL-9h1o7jgT-25" vertex="1">
                    <mxGeometry x="20" y="120" width="40" height="20" as="geometry"/>
                </mxCell>
                <mxCell id="cDbEW9LaPRL-9h1o7jgT-30" value="Login" style="text;html=1;strokeColor=none;fillColor=none;align=center;verticalAlign=middle;whiteSpace=wrap;rounded=0;" parent="cDbEW9LaPRL-9h1o7jgT-25" vertex="1">
                    <mxGeometry x="317.5" y="120" width="40" height="20" as="geometry"/>
                </mxCell>
                <mxCell id="cDbEW9LaPRL-9h1o7jgT-31" value="Sign In" style="text;html=1;strokeColor=none;fillColor=none;align=center;verticalAlign=middle;whiteSpace=wrap;rounded=0;fontSize=23;" parent="cDbEW9LaPRL-9h1o7jgT-25" vertex="1">
                    <mxGeometry x="142.5" y="170" width="85" height="20" as="geometry"/>
                </mxCell>
                <mxCell id="cDbEW9LaPRL-9h1o7jgT-32" value="app.com/auth/signin" style="text;html=1;strokeColor=none;fillColor=none;align=left;verticalAlign=middle;whiteSpace=wrap;rounded=0;fontSize=14;fontStyle=1" parent="cDbEW9LaPRL-9h1o7jgT-25" vertex="1">
                    <mxGeometry x="130" y="63" width="150" height="20" as="geometry"/>
                </mxCell>
                <mxCell id="cDbEW9LaPRL-9h1o7jgT-33" value="&lt;i style=&quot;font-size: 11px;&quot;&gt;Enter Email&lt;/i&gt;" style="rounded=0;whiteSpace=wrap;html=1;fontSize=11;align=left;spacingLeft=10;fontColor=#919191;" parent="cDbEW9LaPRL-9h1o7jgT-25" vertex="1">
                    <mxGeometry x="89" y="210" width="192" height="25" as="geometry"/>
                </mxCell>
                <mxCell id="cDbEW9LaPRL-9h1o7jgT-34" value="&lt;i style=&quot;font-size: 11px&quot;&gt;Enter Password&lt;/i&gt;" style="rounded=0;whiteSpace=wrap;html=1;fontSize=11;align=left;spacingLeft=10;fontColor=#919191;" parent="cDbEW9LaPRL-9h1o7jgT-25" vertex="1">
                    <mxGeometry x="88" y="245" width="192" height="25" as="geometry"/>
                </mxCell>
                <mxCell id="cDbEW9LaPRL-9h1o7jgT-35" value="Sign In" style="rounded=1;whiteSpace=wrap;html=1;fontSize=11;align=center;" parent="cDbEW9LaPRL-9h1o7jgT-25" vertex="1">
                    <mxGeometry x="124" y="280" width="120" height="30" as="geometry"/>
                </mxCell>
                <mxCell id="cDbEW9LaPRL-9h1o7jgT-36" value="" style="strokeWidth=1;shadow=0;dashed=0;align=center;html=1;shape=mxgraph.mockup.containers.browserWindow;rSize=0;strokeColor=#666666;strokeColor2=#008cff;strokeColor3=#c4c4c4;mainText=,;recursiveResize=0;" parent="1" vertex="1">
                    <mxGeometry x="1810" y="330" width="370" height="380" as="geometry"/>
                </mxCell>
                <mxCell id="cDbEW9LaPRL-9h1o7jgT-37" value="Page 1" style="strokeWidth=1;shadow=0;dashed=0;align=center;html=1;shape=mxgraph.mockup.containers.anchor;fontSize=17;fontColor=#666666;align=left;" parent="cDbEW9LaPRL-9h1o7jgT-36" vertex="1">
                    <mxGeometry x="60" y="12" width="110" height="26" as="geometry"/>
                </mxCell>
                <mxCell id="cDbEW9LaPRL-9h1o7jgT-38" value="" style="strokeWidth=1;shadow=0;dashed=0;align=center;html=1;shape=mxgraph.mockup.containers.anchor;rSize=0;fontSize=17;fontColor=#666666;align=left;" parent="cDbEW9LaPRL-9h1o7jgT-36" vertex="1">
                    <mxGeometry x="130" y="60" width="250" height="26" as="geometry"/>
                </mxCell>
                <mxCell id="cDbEW9LaPRL-9h1o7jgT-39" value="" style="rounded=0;whiteSpace=wrap;html=1;" parent="cDbEW9LaPRL-9h1o7jgT-36" vertex="1">
                    <mxGeometry y="110" width="370" height="40" as="geometry"/>
                </mxCell>
                <mxCell id="cDbEW9LaPRL-9h1o7jgT-40" value="App" style="text;html=1;strokeColor=none;fillColor=none;align=center;verticalAlign=middle;whiteSpace=wrap;rounded=0;" parent="cDbEW9LaPRL-9h1o7jgT-36" vertex="1">
                    <mxGeometry x="20" y="120" width="40" height="20" as="geometry"/>
                </mxCell>
                <mxCell id="cDbEW9LaPRL-9h1o7jgT-41" value="Login" style="text;html=1;strokeColor=none;fillColor=none;align=center;verticalAlign=middle;whiteSpace=wrap;rounded=0;" parent="cDbEW9LaPRL-9h1o7jgT-36" vertex="1">
                    <mxGeometry x="317.5" y="120" width="40" height="20" as="geometry"/>
                </mxCell>
                <mxCell id="cDbEW9LaPRL-9h1o7jgT-42" value="Sign Up" style="text;html=1;strokeColor=none;fillColor=none;align=center;verticalAlign=middle;whiteSpace=wrap;rounded=0;fontSize=23;" parent="cDbEW9LaPRL-9h1o7jgT-36" vertex="1">
                    <mxGeometry x="142.5" y="170" width="85" height="20" as="geometry"/>
                </mxCell>
                <mxCell id="cDbEW9LaPRL-9h1o7jgT-43" value="app.com/auth/signup" style="text;html=1;strokeColor=none;fillColor=none;align=left;verticalAlign=middle;whiteSpace=wrap;rounded=0;fontSize=14;fontStyle=1" parent="cDbEW9LaPRL-9h1o7jgT-36" vertex="1">
                    <mxGeometry x="130" y="63" width="150" height="20" as="geometry"/>
                </mxCell>
                <mxCell id="cDbEW9LaPRL-9h1o7jgT-44" value="&lt;i style=&quot;font-size: 11px;&quot;&gt;Enter Email&lt;/i&gt;" style="rounded=0;whiteSpace=wrap;html=1;fontSize=11;align=left;spacingLeft=10;fontColor=#919191;" parent="cDbEW9LaPRL-9h1o7jgT-36" vertex="1">
                    <mxGeometry x="89" y="210" width="192" height="25" as="geometry"/>
                </mxCell>
                <mxCell id="cDbEW9LaPRL-9h1o7jgT-45" value="&lt;i style=&quot;font-size: 11px&quot;&gt;Enter Password&lt;/i&gt;" style="rounded=0;whiteSpace=wrap;html=1;fontSize=11;align=left;spacingLeft=10;fontColor=#919191;" parent="cDbEW9LaPRL-9h1o7jgT-36" vertex="1">
                    <mxGeometry x="88" y="245" width="192" height="25" as="geometry"/>
                </mxCell>
                <mxCell id="cDbEW9LaPRL-9h1o7jgT-46" value="Sign Up" style="rounded=1;whiteSpace=wrap;html=1;fontSize=11;align=center;" parent="cDbEW9LaPRL-9h1o7jgT-36" vertex="1">
                    <mxGeometry x="124" y="320" width="120" height="30" as="geometry"/>
                </mxCell>
                <mxCell id="cDbEW9LaPRL-9h1o7jgT-47" value="&lt;i style=&quot;font-size: 11px&quot;&gt;Enter Password Again&lt;/i&gt;" style="rounded=0;whiteSpace=wrap;html=1;fontSize=11;align=left;spacingLeft=10;fontColor=#919191;" parent="cDbEW9LaPRL-9h1o7jgT-36" vertex="1">
                    <mxGeometry x="88" y="280" width="192" height="25" as="geometry"/>
                </mxCell>
                <mxCell id="cDbEW9LaPRL-9h1o7jgT-48" value="" style="strokeWidth=1;shadow=0;dashed=0;align=center;html=1;shape=mxgraph.mockup.containers.browserWindow;rSize=0;strokeColor=#666666;strokeColor2=#008cff;strokeColor3=#c4c4c4;mainText=,;recursiveResize=0;" parent="1" vertex="1">
                    <mxGeometry x="2230" y="330" width="370" height="380" as="geometry"/>
                </mxCell>
                <mxCell id="cDbEW9LaPRL-9h1o7jgT-49" value="Page 1" style="strokeWidth=1;shadow=0;dashed=0;align=center;html=1;shape=mxgraph.mockup.containers.anchor;fontSize=17;fontColor=#666666;align=left;" parent="cDbEW9LaPRL-9h1o7jgT-48" vertex="1">
                    <mxGeometry x="60" y="12" width="110" height="26" as="geometry"/>
                </mxCell>
                <mxCell id="cDbEW9LaPRL-9h1o7jgT-50" value="" style="strokeWidth=1;shadow=0;dashed=0;align=center;html=1;shape=mxgraph.mockup.containers.anchor;rSize=0;fontSize=17;fontColor=#666666;align=left;" parent="cDbEW9LaPRL-9h1o7jgT-48" vertex="1">
                    <mxGeometry x="130" y="60" width="250" height="26" as="geometry"/>
                </mxCell>
                <mxCell id="cDbEW9LaPRL-9h1o7jgT-51" value="" style="rounded=0;whiteSpace=wrap;html=1;" parent="cDbEW9LaPRL-9h1o7jgT-48" vertex="1">
                    <mxGeometry y="110" width="370" height="40" as="geometry"/>
                </mxCell>
                <mxCell id="cDbEW9LaPRL-9h1o7jgT-52" value="App" style="text;html=1;strokeColor=none;fillColor=none;align=center;verticalAlign=middle;whiteSpace=wrap;rounded=0;" parent="cDbEW9LaPRL-9h1o7jgT-48" vertex="1">
                    <mxGeometry x="20" y="120" width="40" height="20" as="geometry"/>
                </mxCell>
                <mxCell id="cDbEW9LaPRL-9h1o7jgT-53" value="Logout" style="text;html=1;strokeColor=none;fillColor=none;align=center;verticalAlign=middle;whiteSpace=wrap;rounded=0;" parent="cDbEW9LaPRL-9h1o7jgT-48" vertex="1">
                    <mxGeometry x="317.5" y="120" width="40" height="20" as="geometry"/>
                </mxCell>
                <mxCell id="cDbEW9LaPRL-9h1o7jgT-54" value="app.com/dashboard" style="text;html=1;strokeColor=none;fillColor=none;align=left;verticalAlign=middle;whiteSpace=wrap;rounded=0;fontSize=14;fontStyle=1" parent="cDbEW9LaPRL-9h1o7jgT-48" vertex="1">
                    <mxGeometry x="130" y="63" width="150" height="20" as="geometry"/>
                </mxCell>
                <mxCell id="cDbEW9LaPRL-9h1o7jgT-55" value="Pretty charts and tables" style="ellipse;shape=cloud;whiteSpace=wrap;html=1;fontSize=15;fontColor=#333333;align=center;fontStyle=2;fillColor=#f5f5f5;strokeColor=#666666;" parent="cDbEW9LaPRL-9h1o7jgT-48" vertex="1">
                    <mxGeometry x="20" y="200" width="320" height="100" as="geometry"/>
                </mxCell>
                <mxCell id="cDbEW9LaPRL-9h1o7jgT-56" value="Home Page" style="rounded=0;whiteSpace=wrap;html=1;fontSize=23;align=center;fillColor=#dae8fc;strokeColor=#6c8ebf;fontStyle=1" parent="1" vertex="1">
                    <mxGeometry x="620" y="270" width="210" height="50" as="geometry"/>
                </mxCell>
                <mxCell id="cDbEW9LaPRL-9h1o7jgT-57" value="Pricing Page" style="rounded=0;whiteSpace=wrap;html=1;fontSize=23;align=center;fillColor=#dae8fc;strokeColor=#6c8ebf;fontStyle=1" parent="1" vertex="1">
                    <mxGeometry x="1040" y="270" width="210" height="50" as="geometry"/>
                </mxCell>
                <mxCell id="cDbEW9LaPRL-9h1o7jgT-58" value="Sign In Page" style="rounded=0;whiteSpace=wrap;html=1;fontSize=23;align=center;fillColor=#dae8fc;strokeColor=#6c8ebf;fontStyle=1" parent="1" vertex="1">
                    <mxGeometry x="1460" y="270" width="210" height="50" as="geometry"/>
                </mxCell>
                <mxCell id="cDbEW9LaPRL-9h1o7jgT-59" value="Sign Up Page" style="rounded=0;whiteSpace=wrap;html=1;fontSize=23;align=center;fillColor=#dae8fc;strokeColor=#6c8ebf;fontStyle=1" parent="1" vertex="1">
                    <mxGeometry x="1890" y="270" width="210" height="50" as="geometry"/>
                </mxCell>
                <mxCell id="cDbEW9LaPRL-9h1o7jgT-60" value="Dashboard Page" style="rounded=0;whiteSpace=wrap;html=1;fontSize=23;align=center;fillColor=#dae8fc;strokeColor=#6c8ebf;fontStyle=1" parent="1" vertex="1">
                    <mxGeometry x="2310" y="270" width="210" height="50" as="geometry"/>
                </mxCell>
            </root>
        </mxGraphModel>
    </diagram>
    <diagram id="26XfwZ-cS5_ghJPnD3eF" name="03 - css">
        <mxGraphModel dx="832" dy="382" grid="1" gridSize="10" guides="1" tooltips="1" connect="1" arrows="1" fold="1" page="1" pageScale="1" pageWidth="1920" pageHeight="1200" math="0" shadow="0">
            <root>
                <mxCell id="08qF8iFb3jNuqnWieO9Y-0"/>
                <mxCell id="08qF8iFb3jNuqnWieO9Y-1" parent="08qF8iFb3jNuqnWieO9Y-0"/>
                <mxCell id="OvEKBu75v9_s4ycWosmM-0" value="" style="strokeWidth=1;shadow=0;dashed=0;align=center;html=1;shape=mxgraph.mockup.containers.browserWindow;rSize=0;strokeColor=#666666;strokeColor2=#008cff;strokeColor3=#c4c4c4;mainText=,;recursiveResize=0;" parent="08qF8iFb3jNuqnWieO9Y-1" vertex="1">
                    <mxGeometry x="200" y="220" width="370" height="380" as="geometry"/>
                </mxCell>
                <mxCell id="OvEKBu75v9_s4ycWosmM-1" value="Page 1" style="strokeWidth=1;shadow=0;dashed=0;align=center;html=1;shape=mxgraph.mockup.containers.anchor;fontSize=17;fontColor=#666666;align=left;" parent="OvEKBu75v9_s4ycWosmM-0" vertex="1">
                    <mxGeometry x="60" y="12" width="110" height="26" as="geometry"/>
                </mxCell>
                <mxCell id="OvEKBu75v9_s4ycWosmM-2" value="" style="strokeWidth=1;shadow=0;dashed=0;align=center;html=1;shape=mxgraph.mockup.containers.anchor;rSize=0;fontSize=17;fontColor=#666666;align=left;" parent="OvEKBu75v9_s4ycWosmM-0" vertex="1">
                    <mxGeometry x="130" y="60" width="250" height="26" as="geometry"/>
                </mxCell>
                <mxCell id="OvEKBu75v9_s4ycWosmM-3" value="" style="rounded=0;whiteSpace=wrap;html=1;" parent="OvEKBu75v9_s4ycWosmM-0" vertex="1">
                    <mxGeometry y="110" width="370" height="40" as="geometry"/>
                </mxCell>
                <mxCell id="OvEKBu75v9_s4ycWosmM-4" value="App" style="text;html=1;strokeColor=none;fillColor=none;align=center;verticalAlign=middle;whiteSpace=wrap;rounded=0;" parent="OvEKBu75v9_s4ycWosmM-0" vertex="1">
                    <mxGeometry x="20" y="120" width="40" height="20" as="geometry"/>
                </mxCell>
                <mxCell id="OvEKBu75v9_s4ycWosmM-5" value="Login" style="text;html=1;strokeColor=none;fillColor=none;align=center;verticalAlign=middle;whiteSpace=wrap;rounded=0;" parent="OvEKBu75v9_s4ycWosmM-0" vertex="1">
                    <mxGeometry x="317.5" y="120" width="40" height="20" as="geometry"/>
                </mxCell>
                <mxCell id="OvEKBu75v9_s4ycWosmM-6" value="Pricing" style="text;html=1;strokeColor=none;fillColor=none;align=center;verticalAlign=middle;whiteSpace=wrap;rounded=0;fontSize=25;fontStyle=1;fontColor=#009900;" parent="OvEKBu75v9_s4ycWosmM-0" vertex="1">
                    <mxGeometry x="115" y="180" width="140" height="30" as="geometry"/>
                </mxCell>
                <mxCell id="OvEKBu75v9_s4ycWosmM-7" value="" style="rounded=0;whiteSpace=wrap;html=1;fontSize=14;" parent="OvEKBu75v9_s4ycWosmM-0" vertex="1">
                    <mxGeometry x="50" y="220" width="120" height="100" as="geometry"/>
                </mxCell>
                <mxCell id="OvEKBu75v9_s4ycWosmM-8" value="Free" style="text;html=1;strokeColor=none;fillColor=none;align=center;verticalAlign=middle;whiteSpace=wrap;rounded=0;fontSize=17;" parent="OvEKBu75v9_s4ycWosmM-0" vertex="1">
                    <mxGeometry x="90" y="230" width="40" height="20" as="geometry"/>
                </mxCell>
                <mxCell id="OvEKBu75v9_s4ycWosmM-9" value="Sign Up" style="rounded=1;whiteSpace=wrap;html=1;fontSize=14;" parent="OvEKBu75v9_s4ycWosmM-0" vertex="1">
                    <mxGeometry x="62.5" y="280" width="95" height="30" as="geometry"/>
                </mxCell>
                <mxCell id="OvEKBu75v9_s4ycWosmM-10" value="" style="rounded=0;whiteSpace=wrap;html=1;fontSize=14;" parent="OvEKBu75v9_s4ycWosmM-0" vertex="1">
                    <mxGeometry x="205" y="220" width="120" height="100" as="geometry"/>
                </mxCell>
                <mxCell id="OvEKBu75v9_s4ycWosmM-11" value="$30/month" style="text;html=1;strokeColor=none;fillColor=none;align=center;verticalAlign=middle;whiteSpace=wrap;rounded=0;fontSize=17;" parent="OvEKBu75v9_s4ycWosmM-0" vertex="1">
                    <mxGeometry x="245" y="230" width="40" height="20" as="geometry"/>
                </mxCell>
                <mxCell id="OvEKBu75v9_s4ycWosmM-12" value="Sign Up" style="rounded=1;whiteSpace=wrap;html=1;fontSize=14;" parent="OvEKBu75v9_s4ycWosmM-0" vertex="1">
                    <mxGeometry x="217.5" y="280" width="95" height="30" as="geometry"/>
                </mxCell>
                <mxCell id="OvEKBu75v9_s4ycWosmM-13" value="app.com/pricing" style="text;html=1;strokeColor=none;fillColor=none;align=left;verticalAlign=middle;whiteSpace=wrap;rounded=0;fontSize=14;fontStyle=1" parent="OvEKBu75v9_s4ycWosmM-0" vertex="1">
                    <mxGeometry x="130" y="63" width="150" height="20" as="geometry"/>
                </mxCell>
                <mxCell id="OvEKBu75v9_s4ycWosmM-14" value="" style="strokeWidth=1;shadow=0;dashed=0;align=center;html=1;shape=mxgraph.mockup.containers.browserWindow;rSize=0;strokeColor=#666666;strokeColor2=#008cff;strokeColor3=#c4c4c4;mainText=,;recursiveResize=0;" parent="08qF8iFb3jNuqnWieO9Y-1" vertex="1">
                    <mxGeometry x="800" y="220" width="370" height="380" as="geometry"/>
                </mxCell>
                <mxCell id="OvEKBu75v9_s4ycWosmM-15" value="Page 1" style="strokeWidth=1;shadow=0;dashed=0;align=center;html=1;shape=mxgraph.mockup.containers.anchor;fontSize=17;fontColor=#666666;align=left;" parent="OvEKBu75v9_s4ycWosmM-14" vertex="1">
                    <mxGeometry x="60" y="12" width="110" height="26" as="geometry"/>
                </mxCell>
                <mxCell id="OvEKBu75v9_s4ycWosmM-16" value="" style="strokeWidth=1;shadow=0;dashed=0;align=center;html=1;shape=mxgraph.mockup.containers.anchor;rSize=0;fontSize=17;fontColor=#666666;align=left;" parent="OvEKBu75v9_s4ycWosmM-14" vertex="1">
                    <mxGeometry x="130" y="60" width="250" height="26" as="geometry"/>
                </mxCell>
                <mxCell id="OvEKBu75v9_s4ycWosmM-17" value="" style="rounded=0;whiteSpace=wrap;html=1;" parent="OvEKBu75v9_s4ycWosmM-14" vertex="1">
                    <mxGeometry y="110" width="370" height="40" as="geometry"/>
                </mxCell>
                <mxCell id="OvEKBu75v9_s4ycWosmM-18" value="App" style="text;html=1;strokeColor=none;fillColor=none;align=center;verticalAlign=middle;whiteSpace=wrap;rounded=0;" parent="OvEKBu75v9_s4ycWosmM-14" vertex="1">
                    <mxGeometry x="20" y="120" width="40" height="20" as="geometry"/>
                </mxCell>
                <mxCell id="OvEKBu75v9_s4ycWosmM-19" value="Login" style="text;html=1;strokeColor=none;fillColor=none;align=center;verticalAlign=middle;whiteSpace=wrap;rounded=0;" parent="OvEKBu75v9_s4ycWosmM-14" vertex="1">
                    <mxGeometry x="317.5" y="120" width="40" height="20" as="geometry"/>
                </mxCell>
                <mxCell id="OvEKBu75v9_s4ycWosmM-20" value="Sign In" style="text;html=1;strokeColor=none;fillColor=none;align=center;verticalAlign=middle;whiteSpace=wrap;rounded=0;fontSize=25;fontStyle=1;fontColor=#009900;" parent="OvEKBu75v9_s4ycWosmM-14" vertex="1">
                    <mxGeometry x="131.25" y="180" width="107.5" height="20" as="geometry"/>
                </mxCell>
                <mxCell id="OvEKBu75v9_s4ycWosmM-21" value="app.com/auth/signin" style="text;html=1;strokeColor=none;fillColor=none;align=left;verticalAlign=middle;whiteSpace=wrap;rounded=0;fontSize=14;fontStyle=1" parent="OvEKBu75v9_s4ycWosmM-14" vertex="1">
                    <mxGeometry x="130" y="63" width="150" height="20" as="geometry"/>
                </mxCell>
                <mxCell id="OvEKBu75v9_s4ycWosmM-22" value="&lt;i style=&quot;font-size: 11px;&quot;&gt;Enter Email&lt;/i&gt;" style="rounded=0;whiteSpace=wrap;html=1;fontSize=11;align=left;spacingLeft=10;fontColor=#919191;" parent="OvEKBu75v9_s4ycWosmM-14" vertex="1">
                    <mxGeometry x="89" y="210" width="192" height="25" as="geometry"/>
                </mxCell>
                <mxCell id="OvEKBu75v9_s4ycWosmM-23" value="&lt;i style=&quot;font-size: 11px&quot;&gt;Enter Password&lt;/i&gt;" style="rounded=0;whiteSpace=wrap;html=1;fontSize=11;align=left;spacingLeft=10;fontColor=#919191;" parent="OvEKBu75v9_s4ycWosmM-14" vertex="1">
                    <mxGeometry x="88" y="245" width="192" height="25" as="geometry"/>
                </mxCell>
                <mxCell id="OvEKBu75v9_s4ycWosmM-24" value="Sign In" style="rounded=1;whiteSpace=wrap;html=1;fontSize=11;align=center;" parent="OvEKBu75v9_s4ycWosmM-14" vertex="1">
                    <mxGeometry x="124" y="280" width="120" height="30" as="geometry"/>
                </mxCell>
                <mxCell id="OvEKBu75v9_s4ycWosmM-25" value="Pricing Page" style="rounded=0;whiteSpace=wrap;html=1;fontSize=23;align=center;fillColor=#dae8fc;strokeColor=#6c8ebf;fontStyle=0" parent="08qF8iFb3jNuqnWieO9Y-1" vertex="1">
                    <mxGeometry x="280" y="190" width="210" height="30" as="geometry"/>
                </mxCell>
                <mxCell id="OvEKBu75v9_s4ycWosmM-26" value="Sign In Page" style="rounded=0;whiteSpace=wrap;html=1;fontSize=23;align=center;fillColor=#d5e8d4;strokeColor=#82b366;fontStyle=0" parent="08qF8iFb3jNuqnWieO9Y-1" vertex="1">
                    <mxGeometry x="880" y="190" width="210" height="30" as="geometry"/>
                </mxCell>
                <mxCell id="OvEKBu75v9_s4ycWosmM-29" style="edgeStyle=orthogonalEdgeStyle;rounded=0;orthogonalLoop=1;jettySize=auto;html=1;exitX=1;exitY=0.5;exitDx=0;exitDy=0;fontSize=22;strokeWidth=5;" parent="08qF8iFb3jNuqnWieO9Y-1" source="OvEKBu75v9_s4ycWosmM-27" target="OvEKBu75v9_s4ycWosmM-28" edge="1">
                    <mxGeometry relative="1" as="geometry"/>
                </mxCell>
                <mxCell id="OvEKBu75v9_s4ycWosmM-27" value="User starts here" style="rounded=0;whiteSpace=wrap;html=1;fontSize=22;fillColor=#f8cecc;strokeColor=#b85450;fontStyle=1" parent="08qF8iFb3jNuqnWieO9Y-1" vertex="1">
                    <mxGeometry x="280" y="600" width="290" height="60" as="geometry"/>
                </mxCell>
                <mxCell id="OvEKBu75v9_s4ycWosmM-31" style="edgeStyle=orthogonalEdgeStyle;rounded=0;orthogonalLoop=1;jettySize=auto;html=1;exitX=0.5;exitY=1;exitDx=0;exitDy=0;strokeWidth=5;fontSize=22;" parent="08qF8iFb3jNuqnWieO9Y-1" source="OvEKBu75v9_s4ycWosmM-28" target="OvEKBu75v9_s4ycWosmM-30" edge="1">
                    <mxGeometry relative="1" as="geometry"/>
                </mxCell>
                <mxCell id="OvEKBu75v9_s4ycWosmM-28" value="Navigates to 'auth', loads up additional CSS" style="rounded=0;whiteSpace=wrap;html=1;fontSize=22;fillColor=#f8cecc;strokeColor=#b85450;fontStyle=1" parent="08qF8iFb3jNuqnWieO9Y-1" vertex="1">
                    <mxGeometry x="800" y="600" width="320" height="60" as="geometry"/>
                </mxCell>
                <mxCell id="OvEKBu75v9_s4ycWosmM-33" style="edgeStyle=orthogonalEdgeStyle;rounded=0;orthogonalLoop=1;jettySize=auto;html=1;exitX=0;exitY=0.5;exitDx=0;exitDy=0;strokeWidth=5;fontSize=22;" parent="08qF8iFb3jNuqnWieO9Y-1" source="OvEKBu75v9_s4ycWosmM-30" target="OvEKBu75v9_s4ycWosmM-32" edge="1">
                    <mxGeometry relative="1" as="geometry"/>
                </mxCell>
                <mxCell id="OvEKBu75v9_s4ycWosmM-30" value="CSS includes&amp;nbsp;&lt;br&gt;h1 { color: 'green' }" style="rounded=0;whiteSpace=wrap;html=1;fontSize=22;fillColor=#f8cecc;strokeColor=#b85450;fontStyle=1" parent="08qF8iFb3jNuqnWieO9Y-1" vertex="1">
                    <mxGeometry x="800" y="700" width="320" height="60" as="geometry"/>
                </mxCell>
                <mxCell id="OvEKBu75v9_s4ycWosmM-32" value="User navigates back to pricing" style="rounded=0;whiteSpace=wrap;html=1;fontSize=22;fillColor=#f8cecc;strokeColor=#b85450;fontStyle=1" parent="08qF8iFb3jNuqnWieO9Y-1" vertex="1">
                    <mxGeometry x="280" y="700" width="290" height="60" as="geometry"/>
                </mxCell>
            </root>
        </mxGraphModel>
    </diagram>
    <diagram id="Bdu8AnO2osGfB_wUmXcx" name="04 - options">
        <mxGraphModel dx="578" dy="356" grid="1" gridSize="10" guides="1" tooltips="1" connect="1" arrows="1" fold="1" page="1" pageScale="1" pageWidth="1920" pageHeight="1200" math="0" shadow="0">
            <root>
                <mxCell id="QpvMcZoIGgxD2eMegVr2-0"/>
                <mxCell id="QpvMcZoIGgxD2eMegVr2-1" parent="QpvMcZoIGgxD2eMegVr2-0"/>
                <mxCell id="QpvMcZoIGgxD2eMegVr2-2" value="Use a CSS-in-JS library" style="rounded=0;whiteSpace=wrap;html=1;fontSize=12;fontColor=#000000;strokeColor=#919191;" parent="QpvMcZoIGgxD2eMegVr2-1" vertex="1">
                    <mxGeometry x="380" y="460" width="270" height="30" as="geometry"/>
                </mxCell>
                <mxCell id="QpvMcZoIGgxD2eMegVr2-3" value="CSS Scoping Solutions" style="text;html=1;strokeColor=none;fillColor=none;align=center;verticalAlign=middle;whiteSpace=wrap;rounded=0;fontSize=25;fontColor=#000000;fontStyle=1" parent="QpvMcZoIGgxD2eMegVr2-1" vertex="1">
                    <mxGeometry x="530" y="370" width="290" height="20" as="geometry"/>
                </mxCell>
                <mxCell id="QpvMcZoIGgxD2eMegVr2-4" value="Custom CSS you are writing for your project" style="rounded=0;whiteSpace=wrap;html=1;fontSize=16;strokeColor=#6c8ebf;fillColor=#dae8fc;fontStyle=1" parent="QpvMcZoIGgxD2eMegVr2-1" vertex="1">
                    <mxGeometry x="380" y="410" width="270" height="40" as="geometry"/>
                </mxCell>
                <mxCell id="QpvMcZoIGgxD2eMegVr2-5" value="CSS coming from a component library or CSS library (bootstrap)" style="rounded=0;whiteSpace=wrap;html=1;fontSize=16;strokeColor=#82b366;fillColor=#d5e8d4;fontStyle=1" parent="QpvMcZoIGgxD2eMegVr2-1" vertex="1">
                    <mxGeometry x="680" y="410" width="270" height="40" as="geometry"/>
                </mxCell>
                <mxCell id="QpvMcZoIGgxD2eMegVr2-6" value="Use Vue's built-in component style scoping" style="rounded=0;whiteSpace=wrap;html=1;fontSize=12;fontColor=#000000;strokeColor=#919191;" parent="QpvMcZoIGgxD2eMegVr2-1" vertex="1">
                    <mxGeometry x="380" y="500" width="270" height="30" as="geometry"/>
                </mxCell>
                <mxCell id="QpvMcZoIGgxD2eMegVr2-7" value="Use Angular's built-in component style scoping" style="rounded=0;whiteSpace=wrap;html=1;fontSize=12;fontColor=#000000;strokeColor=#919191;" parent="QpvMcZoIGgxD2eMegVr2-1" vertex="1">
                    <mxGeometry x="380" y="540" width="270" height="30" as="geometry"/>
                </mxCell>
                <mxCell id="QpvMcZoIGgxD2eMegVr2-8" value="&quot;Namespace&quot; all your CSS" style="rounded=0;whiteSpace=wrap;html=1;fontSize=12;fontColor=#000000;strokeColor=#919191;" parent="QpvMcZoIGgxD2eMegVr2-1" vertex="1">
                    <mxGeometry x="380" y="585" width="270" height="30" as="geometry"/>
                </mxCell>
                <mxCell id="QpvMcZoIGgxD2eMegVr2-10" value="Use a component library that does css-in-js" style="rounded=0;whiteSpace=wrap;html=1;fontSize=12;fontColor=#000000;strokeColor=#919191;" parent="QpvMcZoIGgxD2eMegVr2-1" vertex="1">
                    <mxGeometry x="680" y="460" width="270" height="30" as="geometry"/>
                </mxCell>
                <mxCell id="QpvMcZoIGgxD2eMegVr2-11" value="Manually build the css library and apply namespacing techniques to it" style="rounded=0;whiteSpace=wrap;html=1;fontSize=12;fontColor=#000000;strokeColor=#919191;" parent="QpvMcZoIGgxD2eMegVr2-1" vertex="1">
                    <mxGeometry x="680" y="500" width="270" height="60" as="geometry"/>
                </mxCell>
            </root>
        </mxGraphModel>
    </diagram>
    <diagram id="VbH54s1Zp1lLXN_pVD-m" name="16 - cssinjs">
        <mxGraphModel dx="601" dy="370" grid="1" gridSize="10" guides="1" tooltips="1" connect="1" arrows="1" fold="1" page="1" pageScale="1" pageWidth="1920" pageHeight="1200" math="0" shadow="0">
            <root>
                <mxCell id="pwD-_-j7Gj0QAB-yfsBy-0"/>
                <mxCell id="pwD-_-j7Gj0QAB-yfsBy-1" parent="pwD-_-j7Gj0QAB-yfsBy-0"/>
                <mxCell id="F66PzQD_rkAydAPViZhs-1" value="Sign In Page" style="rounded=0;whiteSpace=wrap;html=1;strokeColor=#82b366;fontSize=15;align=center;fontStyle=1;fillColor=#d5e8d4;" vertex="1" parent="pwD-_-j7Gj0QAB-yfsBy-1">
                    <mxGeometry x="500" y="470" width="210" height="40" as="geometry"/>
                </mxCell>
                <mxCell id="KOTkbq1F5YqsHkjnIkmy-1" value="&amp;lt;h1 &lt;b&gt;class=&quot;h1_j1kj2j4&quot;&lt;/b&gt;&amp;gt;&lt;br&gt;&amp;nbsp; &amp;nbsp; Sign In&lt;br&gt;&amp;lt;/h1&amp;gt;" style="rounded=0;whiteSpace=wrap;html=1;strokeColor=#000000;fontSize=15;align=left;fontStyle=0;spacingLeft=20;" vertex="1" parent="pwD-_-j7Gj0QAB-yfsBy-1">
                    <mxGeometry x="500" y="510" width="210" height="90" as="geometry"/>
                </mxCell>
                <mxCell id="KOTkbq1F5YqsHkjnIkmy-4" style="edgeStyle=orthogonalEdgeStyle;rounded=0;orthogonalLoop=1;jettySize=auto;html=1;exitX=0;exitY=0.5;exitDx=0;exitDy=0;strokeWidth=2;fontSize=15;fontColor=#000000;" edge="1" parent="pwD-_-j7Gj0QAB-yfsBy-1" source="KOTkbq1F5YqsHkjnIkmy-2" target="KOTkbq1F5YqsHkjnIkmy-1">
                    <mxGeometry relative="1" as="geometry"/>
                </mxCell>
                <mxCell id="KOTkbq1F5YqsHkjnIkmy-2" value=".h1_j1kj2j4 { &lt;br&gt;&amp;nbsp; &amp;nbsp; &amp;nbsp; color: 'green' &lt;br&gt;}" style="rounded=0;whiteSpace=wrap;html=1;strokeColor=#000000;fontSize=15;align=left;fontStyle=0;spacingLeft=20;" vertex="1" parent="pwD-_-j7Gj0QAB-yfsBy-1">
                    <mxGeometry x="760" y="510" width="250" height="90" as="geometry"/>
                </mxCell>
                <mxCell id="KOTkbq1F5YqsHkjnIkmy-3" value="Sign In Page CSS (Generated by CSS in JS lib)" style="rounded=0;whiteSpace=wrap;html=1;strokeColor=#82b366;fontSize=15;align=center;fontStyle=1;fillColor=#d5e8d4;" vertex="1" parent="pwD-_-j7Gj0QAB-yfsBy-1">
                    <mxGeometry x="760" y="470" width="250" height="40" as="geometry"/>
                </mxCell>
                <mxCell id="KOTkbq1F5YqsHkjnIkmy-5" value="Pricing Page" style="rounded=0;whiteSpace=wrap;html=1;strokeColor=#6c8ebf;fontSize=15;align=center;fontStyle=1;fillColor=#dae8fc;" vertex="1" parent="pwD-_-j7Gj0QAB-yfsBy-1">
                    <mxGeometry x="500" y="320" width="210" height="40" as="geometry"/>
                </mxCell>
                <mxCell id="KOTkbq1F5YqsHkjnIkmy-6" value="&amp;lt;h1&amp;gt;&lt;br&gt;&amp;nbsp; &amp;nbsp;Pricing Options&lt;br&gt;&amp;lt;/h1&amp;gt;" style="rounded=0;whiteSpace=wrap;html=1;strokeColor=#000000;fontSize=15;align=left;fontStyle=0;spacingLeft=20;" vertex="1" parent="pwD-_-j7Gj0QAB-yfsBy-1">
                    <mxGeometry x="500" y="360" width="210" height="90" as="geometry"/>
                </mxCell>
                <mxCell id="KOTkbq1F5YqsHkjnIkmy-7" value="CSS-In-JS" style="rounded=0;whiteSpace=wrap;html=1;strokeColor=#b85450;fontSize=18;align=center;fillColor=#f8cecc;fontStyle=1" vertex="1" parent="pwD-_-j7Gj0QAB-yfsBy-1">
                    <mxGeometry x="660" y="280" width="190" height="30" as="geometry"/>
                </mxCell>
            </root>
        </mxGraphModel>
    </diagram>
    <diagram name="17 - scope" id="OH3wxzjUePXRMs-GxPh4">
        <mxGraphModel dx="626" dy="386" grid="1" gridSize="10" guides="1" tooltips="1" connect="1" arrows="1" fold="1" page="1" pageScale="1" pageWidth="1920" pageHeight="1200" math="0" shadow="0">
            <root>
                <mxCell id="5_osjzfb9Jk6dFkaR66R-0"/>
                <mxCell id="5_osjzfb9Jk6dFkaR66R-1" parent="5_osjzfb9Jk6dFkaR66R-0"/>
                <mxCell id="5_osjzfb9Jk6dFkaR66R-2" value="Sign In Page" style="rounded=0;whiteSpace=wrap;html=1;strokeColor=#82b366;fontSize=15;align=center;fontStyle=1;fillColor=#d5e8d4;" vertex="1" parent="5_osjzfb9Jk6dFkaR66R-1">
                    <mxGeometry x="500" y="470" width="210" height="40" as="geometry"/>
                </mxCell>
                <mxCell id="5_osjzfb9Jk6dFkaR66R-3" value="&amp;lt;div class=&quot;auth&quot;&amp;gt;&lt;br&gt;&amp;nbsp; &amp;nbsp; &amp;lt;h1&amp;gt;&lt;br style=&quot;font-size: 12px&quot;&gt;&amp;nbsp; &amp;nbsp; &amp;nbsp; Sign In&lt;br style=&quot;font-size: 12px&quot;&gt;&amp;nbsp; &amp;nbsp; &amp;lt;/h1&amp;gt;&lt;br&gt;&amp;lt;/div&amp;gt;" style="rounded=0;whiteSpace=wrap;html=1;strokeColor=#000000;fontSize=12;align=left;fontStyle=0;spacingLeft=20;" vertex="1" parent="5_osjzfb9Jk6dFkaR66R-1">
                    <mxGeometry x="500" y="510" width="210" height="90" as="geometry"/>
                </mxCell>
                <mxCell id="5_osjzfb9Jk6dFkaR66R-4" style="edgeStyle=orthogonalEdgeStyle;rounded=0;orthogonalLoop=1;jettySize=auto;html=1;exitX=0;exitY=0.5;exitDx=0;exitDy=0;strokeWidth=2;fontSize=15;fontColor=#000000;" edge="1" parent="5_osjzfb9Jk6dFkaR66R-1" source="5_osjzfb9Jk6dFkaR66R-5" target="5_osjzfb9Jk6dFkaR66R-3">
                    <mxGeometry relative="1" as="geometry"/>
                </mxCell>
                <mxCell id="xx5byXGeNtqku1cbQQ0N-0" style="edgeStyle=orthogonalEdgeStyle;rounded=0;orthogonalLoop=1;jettySize=auto;html=1;exitX=0;exitY=0.5;exitDx=0;exitDy=0;entryX=1;entryY=0.5;entryDx=0;entryDy=0;strokeWidth=2;fontSize=16;fontColor=#000000;" edge="1" parent="5_osjzfb9Jk6dFkaR66R-1" source="5_osjzfb9Jk6dFkaR66R-5" target="5_osjzfb9Jk6dFkaR66R-8">
                    <mxGeometry relative="1" as="geometry"/>
                </mxCell>
                <mxCell id="5_osjzfb9Jk6dFkaR66R-5" value=".auth h1 {&lt;br&gt;&amp;nbsp; &amp;nbsp; color: 'green';&lt;br&gt;}" style="rounded=0;whiteSpace=wrap;html=1;strokeColor=#000000;fontSize=15;align=left;fontStyle=0;spacingLeft=20;" vertex="1" parent="5_osjzfb9Jk6dFkaR66R-1">
                    <mxGeometry x="760" y="510" width="250" height="90" as="geometry"/>
                </mxCell>
                <mxCell id="5_osjzfb9Jk6dFkaR66R-6" value="Sign In Page CSS" style="rounded=0;whiteSpace=wrap;html=1;strokeColor=#82b366;fontSize=15;align=center;fontStyle=1;fillColor=#d5e8d4;" vertex="1" parent="5_osjzfb9Jk6dFkaR66R-1">
                    <mxGeometry x="760" y="470" width="250" height="40" as="geometry"/>
                </mxCell>
                <mxCell id="5_osjzfb9Jk6dFkaR66R-7" value="Pricing Page" style="rounded=0;whiteSpace=wrap;html=1;strokeColor=#6c8ebf;fontSize=15;align=center;fontStyle=1;fillColor=#dae8fc;" vertex="1" parent="5_osjzfb9Jk6dFkaR66R-1">
                    <mxGeometry x="500" y="320" width="210" height="40" as="geometry"/>
                </mxCell>
                <mxCell id="5_osjzfb9Jk6dFkaR66R-8" value="&amp;lt;div class=&quot;pricing&quot;&amp;gt;&lt;br style=&quot;font-size: 12px;&quot;&gt;&amp;nbsp; &amp;lt;h1&amp;gt;&lt;br style=&quot;font-size: 12px;&quot;&gt;&amp;nbsp; &amp;nbsp; &amp;nbsp;Pricing Options&lt;br style=&quot;font-size: 12px;&quot;&gt;&amp;nbsp; &amp;lt;/h1&amp;gt;&lt;br style=&quot;font-size: 12px;&quot;&gt;&amp;lt;/div&amp;gt;" style="rounded=0;whiteSpace=wrap;html=1;strokeColor=#000000;fontSize=12;align=left;fontStyle=0;spacingLeft=20;" vertex="1" parent="5_osjzfb9Jk6dFkaR66R-1">
                    <mxGeometry x="500" y="360" width="210" height="90" as="geometry"/>
                </mxCell>
                <mxCell id="5_osjzfb9Jk6dFkaR66R-9" value="Scoping" style="rounded=0;whiteSpace=wrap;html=1;strokeColor=#b85450;fontSize=18;align=center;fillColor=#f8cecc;fontStyle=1" vertex="1" parent="5_osjzfb9Jk6dFkaR66R-1">
                    <mxGeometry x="670" y="280" width="190" height="30" as="geometry"/>
                </mxCell>
            </root>
        </mxGraphModel>
    </diagram>
    <diagram id="MbP-w5t7GGADehZZ7vQC" name="18 - lib">
        <mxGraphModel dx="715" dy="441" grid="1" gridSize="10" guides="1" tooltips="1" connect="1" arrows="1" fold="1" page="1" pageScale="1" pageWidth="1920" pageHeight="1200" math="0" shadow="0">
            <root>
                <mxCell id="cTX5HnToSguaYNQo_clA-0"/>
                <mxCell id="cTX5HnToSguaYNQo_clA-1" parent="cTX5HnToSguaYNQo_clA-0"/>
                <mxCell id="aCngPV3iW4ZryS0iGhtD-0" value="Sign In Page" style="rounded=0;whiteSpace=wrap;html=1;strokeColor=#82b366;fontSize=15;align=center;fontStyle=1;fillColor=#d5e8d4;" vertex="1" parent="cTX5HnToSguaYNQo_clA-1">
                    <mxGeometry x="500" y="470" width="210" height="40" as="geometry"/>
                </mxCell>
                <mxCell id="aCngPV3iW4ZryS0iGhtD-1" value="&amp;nbsp; &amp;nbsp; &amp;lt;h1&amp;gt;&lt;br style=&quot;font-size: 16px;&quot;&gt;&amp;nbsp; &amp;nbsp; &amp;nbsp; Sign In&lt;br style=&quot;font-size: 16px;&quot;&gt;&amp;nbsp; &amp;nbsp; &amp;lt;/h1&amp;gt;" style="rounded=0;whiteSpace=wrap;html=1;strokeColor=#000000;fontSize=16;align=left;fontStyle=0;spacingLeft=20;" vertex="1" parent="cTX5HnToSguaYNQo_clA-1">
                    <mxGeometry x="500" y="510" width="210" height="90" as="geometry"/>
                </mxCell>
                <mxCell id="aCngPV3iW4ZryS0iGhtD-2" value="Pricing Page" style="rounded=0;whiteSpace=wrap;html=1;strokeColor=#6c8ebf;fontSize=15;align=center;fontStyle=1;fillColor=#dae8fc;" vertex="1" parent="cTX5HnToSguaYNQo_clA-1">
                    <mxGeometry x="500" y="320" width="210" height="40" as="geometry"/>
                </mxCell>
                <mxCell id="aCngPV3iW4ZryS0iGhtD-3" value="&amp;nbsp; &amp;lt;h1&amp;gt;&lt;br style=&quot;font-size: 16px;&quot;&gt;&amp;nbsp; &amp;nbsp; &amp;nbsp;Pricing Options&lt;br style=&quot;font-size: 16px;&quot;&gt;&amp;nbsp; &amp;lt;/h1&amp;gt;" style="rounded=0;whiteSpace=wrap;html=1;strokeColor=#000000;fontSize=16;align=left;fontStyle=0;spacingLeft=20;" vertex="1" parent="cTX5HnToSguaYNQo_clA-1">
                    <mxGeometry x="500" y="360" width="210" height="90" as="geometry"/>
                </mxCell>
                <mxCell id="E0FTR6VM3ahbs9kv7N-8-0" value="Deliberate Shared CSS Libraries" style="rounded=0;whiteSpace=wrap;html=1;strokeColor=#b85450;fontSize=18;align=center;fillColor=#f8cecc;fontStyle=1" vertex="1" parent="cTX5HnToSguaYNQo_clA-1">
                    <mxGeometry x="620" y="270" width="340" height="30" as="geometry"/>
                </mxCell>
                <mxCell id="E0FTR6VM3ahbs9kv7N-8-3" style="edgeStyle=orthogonalEdgeStyle;rounded=0;orthogonalLoop=1;jettySize=auto;html=1;exitX=0;exitY=0.5;exitDx=0;exitDy=0;entryX=1;entryY=0.5;entryDx=0;entryDy=0;strokeWidth=2;fontSize=16;fontColor=#000000;" edge="1" parent="cTX5HnToSguaYNQo_clA-1" source="E0FTR6VM3ahbs9kv7N-8-1" target="aCngPV3iW4ZryS0iGhtD-2">
                    <mxGeometry relative="1" as="geometry"/>
                </mxCell>
                <mxCell id="E0FTR6VM3ahbs9kv7N-8-4" style="edgeStyle=orthogonalEdgeStyle;rounded=0;orthogonalLoop=1;jettySize=auto;html=1;exitX=0;exitY=0.5;exitDx=0;exitDy=0;entryX=1;entryY=0.5;entryDx=0;entryDy=0;strokeWidth=2;fontSize=16;fontColor=#000000;" edge="1" parent="cTX5HnToSguaYNQo_clA-1" source="E0FTR6VM3ahbs9kv7N-8-1" target="aCngPV3iW4ZryS0iGhtD-0">
                    <mxGeometry relative="1" as="geometry"/>
                </mxCell>
                <mxCell id="E0FTR6VM3ahbs9kv7N-8-1" value="Bootstrap V4" style="rounded=0;whiteSpace=wrap;html=1;strokeColor=#9673a6;fontSize=16;align=center;fillColor=#e1d5e7;fontStyle=1" vertex="1" parent="cTX5HnToSguaYNQo_clA-1">
                    <mxGeometry x="800" y="410" width="250" height="30" as="geometry"/>
                </mxCell>
                <mxCell id="E0FTR6VM3ahbs9kv7N-8-2" value="h1 {&amp;nbsp; &amp;nbsp; font-size: 26px&amp;nbsp; &amp;nbsp;}" style="rounded=0;whiteSpace=wrap;html=1;strokeColor=#9673a6;fontSize=16;align=center;fillColor=#e1d5e7;fontStyle=1" vertex="1" parent="cTX5HnToSguaYNQo_clA-1">
                    <mxGeometry x="800" y="440" width="250" height="80" as="geometry"/>
                </mxCell>
            </root>
        </mxGraphModel>
    </diagram>
    <diagram name="19 - update" id="4SavunaQykNhZr1fbio6">
        <mxGraphModel dx="668" dy="412" grid="1" gridSize="10" guides="1" tooltips="1" connect="1" arrows="1" fold="1" page="1" pageScale="1" pageWidth="1920" pageHeight="1200" math="0" shadow="0">
            <root>
                <mxCell id="EFA66tNzmQbqd1kXw5ib-0"/>
                <mxCell id="EFA66tNzmQbqd1kXw5ib-1" parent="EFA66tNzmQbqd1kXw5ib-0"/>
                <mxCell id="EFA66tNzmQbqd1kXw5ib-2" value="Sign In Page" style="rounded=0;whiteSpace=wrap;html=1;strokeColor=#82b366;fontSize=15;align=center;fontStyle=1;fillColor=#d5e8d4;" vertex="1" parent="EFA66tNzmQbqd1kXw5ib-1">
                    <mxGeometry x="500" y="470" width="210" height="40" as="geometry"/>
                </mxCell>
                <mxCell id="EFA66tNzmQbqd1kXw5ib-3" value="&amp;nbsp; &amp;nbsp; &amp;lt;h1&amp;gt;&lt;br style=&quot;font-size: 16px;&quot;&gt;&amp;nbsp; &amp;nbsp; &amp;nbsp; Sign In&lt;br style=&quot;font-size: 16px;&quot;&gt;&amp;nbsp; &amp;nbsp; &amp;lt;/h1&amp;gt;" style="rounded=0;whiteSpace=wrap;html=1;strokeColor=#000000;fontSize=16;align=left;fontStyle=0;spacingLeft=20;" vertex="1" parent="EFA66tNzmQbqd1kXw5ib-1">
                    <mxGeometry x="500" y="510" width="210" height="90" as="geometry"/>
                </mxCell>
                <mxCell id="EFA66tNzmQbqd1kXw5ib-4" value="Pricing Page" style="rounded=0;whiteSpace=wrap;html=1;strokeColor=#6c8ebf;fontSize=15;align=center;fontStyle=1;fillColor=#dae8fc;" vertex="1" parent="EFA66tNzmQbqd1kXw5ib-1">
                    <mxGeometry x="500" y="320" width="210" height="40" as="geometry"/>
                </mxCell>
                <mxCell id="EFA66tNzmQbqd1kXw5ib-5" value="&amp;nbsp; &amp;lt;h1 class=&quot;card&quot;&amp;gt;&lt;br style=&quot;font-size: 16px&quot;&gt;&amp;nbsp; &amp;nbsp; &amp;nbsp;Pricing Options&lt;br style=&quot;font-size: 16px&quot;&gt;&amp;nbsp; &amp;lt;/h1&amp;gt;" style="rounded=0;whiteSpace=wrap;html=1;strokeColor=#000000;fontSize=16;align=left;fontStyle=0;spacingLeft=20;" vertex="1" parent="EFA66tNzmQbqd1kXw5ib-1">
                    <mxGeometry x="500" y="360" width="210" height="90" as="geometry"/>
                </mxCell>
                <mxCell id="EFA66tNzmQbqd1kXw5ib-6" value="Deliberate Shared CSS Libraries" style="rounded=0;whiteSpace=wrap;html=1;strokeColor=#b85450;fontSize=18;align=center;fillColor=#f8cecc;fontStyle=1" vertex="1" parent="EFA66tNzmQbqd1kXw5ib-1">
                    <mxGeometry x="620" y="270" width="340" height="30" as="geometry"/>
                </mxCell>
                <mxCell id="EFA66tNzmQbqd1kXw5ib-7" style="edgeStyle=orthogonalEdgeStyle;rounded=0;orthogonalLoop=1;jettySize=auto;html=1;exitX=0;exitY=0.5;exitDx=0;exitDy=0;entryX=1;entryY=0.5;entryDx=0;entryDy=0;strokeWidth=2;fontSize=16;fontColor=#000000;" edge="1" parent="EFA66tNzmQbqd1kXw5ib-1" source="EFA66tNzmQbqd1kXw5ib-9" target="EFA66tNzmQbqd1kXw5ib-4">
                    <mxGeometry relative="1" as="geometry"/>
                </mxCell>
                <mxCell id="EFA66tNzmQbqd1kXw5ib-9" value="&lt;span style=&quot;font-weight: normal&quot;&gt;Bootstrap&lt;/span&gt; V4" style="rounded=0;whiteSpace=wrap;html=1;strokeColor=#9673a6;fontSize=16;align=center;fillColor=#e1d5e7;fontStyle=1" vertex="1" parent="EFA66tNzmQbqd1kXw5ib-1">
                    <mxGeometry x="790" y="325" width="250" height="30" as="geometry"/>
                </mxCell>
                <mxCell id="EFA66tNzmQbqd1kXw5ib-10" value=".card {&amp;nbsp; &amp;nbsp; font-size: 26px&amp;nbsp; &amp;nbsp;}" style="rounded=0;whiteSpace=wrap;html=1;strokeColor=#9673a6;fontSize=16;align=center;fillColor=#e1d5e7;fontStyle=1" vertex="1" parent="EFA66tNzmQbqd1kXw5ib-1">
                    <mxGeometry x="790" y="355" width="250" height="80" as="geometry"/>
                </mxCell>
                <mxCell id="EFA66tNzmQbqd1kXw5ib-11" style="edgeStyle=orthogonalEdgeStyle;rounded=0;orthogonalLoop=1;jettySize=auto;html=1;exitX=0;exitY=0.5;exitDx=0;exitDy=0;entryX=1;entryY=0.5;entryDx=0;entryDy=0;strokeWidth=2;fontSize=16;fontColor=#000000;" edge="1" parent="EFA66tNzmQbqd1kXw5ib-1" source="EFA66tNzmQbqd1kXw5ib-12">
                    <mxGeometry relative="1" as="geometry">
                        <mxPoint x="710" y="495" as="targetPoint"/>
                    </mxGeometry>
                </mxCell>
                <mxCell id="EFA66tNzmQbqd1kXw5ib-12" value="&lt;span style=&quot;font-weight: normal&quot;&gt;Bootstrap&lt;/span&gt; V5" style="rounded=0;whiteSpace=wrap;html=1;strokeColor=#d6b656;fontSize=16;align=center;fillColor=#fff2cc;fontStyle=1" vertex="1" parent="EFA66tNzmQbqd1kXw5ib-1">
                    <mxGeometry x="790" y="480" width="250" height="30" as="geometry"/>
                </mxCell>
                <mxCell id="EFA66tNzmQbqd1kXw5ib-13" value=".card-light { alksdjflk}" style="rounded=0;whiteSpace=wrap;html=1;strokeColor=#d6b656;fontSize=16;align=center;fillColor=#fff2cc;fontStyle=1" vertex="1" parent="EFA66tNzmQbqd1kXw5ib-1">
                    <mxGeometry x="790" y="510" width="250" height="80" as="geometry"/>
                </mxCell>
            </root>
        </mxGraphModel>
    </diagram>
    <diagram id="Tk8m2Y8Wxdzo-tzfsgtd" name="08 - ui">
        <mxGraphModel dx="462" dy="285" grid="1" gridSize="10" guides="1" tooltips="1" connect="1" arrows="1" fold="1" page="1" pageScale="1" pageWidth="1920" pageHeight="1200" math="0" shadow="0">
            <root>
                <mxCell id="X5yG9wwp0a8RfG7aHziV-0"/>
                <mxCell id="X5yG9wwp0a8RfG7aHziV-1" parent="X5yG9wwp0a8RfG7aHziV-0"/>
                <mxCell id="OZeXZZcAAIyxoHyR0zvR-0" value="Material-UI&lt;br&gt;&lt;i style=&quot;font-weight: normal&quot;&gt;&lt;font style=&quot;font-size: 14px&quot;&gt;material-ui.com&lt;/font&gt;&lt;/i&gt;" style="rounded=0;whiteSpace=wrap;html=1;strokeColor=#6c8ebf;fontSize=21;fontStyle=1;fillColor=#dae8fc;" parent="X5yG9wwp0a8RfG7aHziV-1" vertex="1">
                    <mxGeometry x="590" y="390" width="320" height="60" as="geometry"/>
                </mxCell>
                <mxCell id="OZeXZZcAAIyxoHyR0zvR-1" value="Component library built for React" style="text;html=1;strokeColor=none;fillColor=none;align=center;verticalAlign=middle;whiteSpace=wrap;rounded=0;fontSize=17;fontColor=#000000;" parent="X5yG9wwp0a8RfG7aHziV-1" vertex="1">
                    <mxGeometry x="595" y="450" width="310" height="30" as="geometry"/>
                </mxCell>
                <mxCell id="qNtelFmApnJLresitZFg-0" value="&lt;i&gt;Uses css-in-js for styling&lt;/i&gt;" style="text;html=1;strokeColor=none;fillColor=none;align=center;verticalAlign=middle;whiteSpace=wrap;rounded=0;fontSize=17;fontColor=#000000;" parent="X5yG9wwp0a8RfG7aHziV-1" vertex="1">
                    <mxGeometry x="595" y="490" width="310" height="30" as="geometry"/>
                </mxCell>
            </root>
        </mxGraphModel>
    </diagram>
    <diagram id="uBBoHvjK3zMyqx-q1uIR" name="07 - scope">
        <mxGraphModel dx="639" dy="394" grid="1" gridSize="10" guides="1" tooltips="1" connect="1" arrows="1" fold="1" page="1" pageScale="1" pageWidth="1920" pageHeight="1200" math="0" shadow="0">
            <root>
                <mxCell id="yINglZ-rpd6273HVnU3L-0"/>
                <mxCell id="yINglZ-rpd6273HVnU3L-1" parent="yINglZ-rpd6273HVnU3L-0"/>
                <mxCell id="tol6Ed1nQ3kXIKXy76gK-0" value="Home Page" style="rounded=0;whiteSpace=wrap;html=1;fontSize=23;align=center;fillColor=#dae8fc;strokeColor=#6c8ebf;fontStyle=0" parent="yINglZ-rpd6273HVnU3L-1" vertex="1">
                    <mxGeometry x="620" y="270" width="210" height="50" as="geometry"/>
                </mxCell>
                <mxCell id="tol6Ed1nQ3kXIKXy76gK-1" value="Pricing Page" style="rounded=0;whiteSpace=wrap;html=1;fontSize=23;align=center;fillColor=#dae8fc;strokeColor=#6c8ebf;fontStyle=0" parent="yINglZ-rpd6273HVnU3L-1" vertex="1">
                    <mxGeometry x="620" y="330" width="210" height="50" as="geometry"/>
                </mxCell>
                <mxCell id="tol6Ed1nQ3kXIKXy76gK-2" value="Container" style="rounded=0;whiteSpace=wrap;html=1;fontSize=23;align=center;fillColor=#d5e8d4;strokeColor=#82b366;fontStyle=0" parent="yINglZ-rpd6273HVnU3L-1" vertex="1">
                    <mxGeometry x="620" y="420" width="210" height="50" as="geometry"/>
                </mxCell>
                <mxCell id="tol6Ed1nQ3kXIKXy76gK-4" value="" style="shape=curlyBracket;whiteSpace=wrap;html=1;rounded=1;fontSize=10;fontColor=#000000;rotation=-180;" parent="yINglZ-rpd6273HVnU3L-1" vertex="1">
                    <mxGeometry x="840" y="270" width="40" height="110" as="geometry"/>
                </mxCell>
                <mxCell id="tol6Ed1nQ3kXIKXy76gK-5" value="" style="shape=curlyBracket;whiteSpace=wrap;html=1;rounded=1;fontSize=10;fontColor=#000000;rotation=-180;" parent="yINglZ-rpd6273HVnU3L-1" vertex="1">
                    <mxGeometry x="840" y="420" width="40" height="50" as="geometry"/>
                </mxCell>
                <mxCell id="tol6Ed1nQ3kXIKXy76gK-7" style="edgeStyle=orthogonalEdgeStyle;rounded=0;orthogonalLoop=1;jettySize=auto;html=1;exitX=0;exitY=0.5;exitDx=0;exitDy=0;entryX=0.1;entryY=0.5;entryDx=0;entryDy=0;entryPerimeter=0;strokeWidth=1;fontSize=17;fontColor=#000000;" parent="yINglZ-rpd6273HVnU3L-1" source="tol6Ed1nQ3kXIKXy76gK-6" target="tol6Ed1nQ3kXIKXy76gK-4" edge="1">
                    <mxGeometry relative="1" as="geometry"/>
                </mxCell>
                <mxCell id="tol6Ed1nQ3kXIKXy76gK-8" style="edgeStyle=orthogonalEdgeStyle;rounded=0;orthogonalLoop=1;jettySize=auto;html=1;exitX=0;exitY=0.5;exitDx=0;exitDy=0;entryX=0.1;entryY=0.5;entryDx=0;entryDy=0;entryPerimeter=0;strokeWidth=1;fontSize=17;fontColor=#000000;" parent="yINglZ-rpd6273HVnU3L-1" source="tol6Ed1nQ3kXIKXy76gK-6" target="tol6Ed1nQ3kXIKXy76gK-5" edge="1">
                    <mxGeometry relative="1" as="geometry"/>
                </mxCell>
                <mxCell id="tol6Ed1nQ3kXIKXy76gK-10" style="edgeStyle=orthogonalEdgeStyle;rounded=0;orthogonalLoop=1;jettySize=auto;html=1;exitX=0.5;exitY=1;exitDx=0;exitDy=0;strokeWidth=1;fontSize=17;fontColor=#000000;" parent="yINglZ-rpd6273HVnU3L-1" source="tol6Ed1nQ3kXIKXy76gK-6" target="tol6Ed1nQ3kXIKXy76gK-9" edge="1">
                    <mxGeometry relative="1" as="geometry"/>
                </mxCell>
                <mxCell id="tol6Ed1nQ3kXIKXy76gK-6" value="Two different projects using the &lt;i style=&quot;font-size: 17px;&quot;&gt;same&lt;/i&gt;&amp;nbsp;css-in-js library" style="rounded=0;whiteSpace=wrap;html=1;strokeColor=#b85450;fontSize=17;fillColor=#f8cecc;" parent="yINglZ-rpd6273HVnU3L-1" vertex="1">
                    <mxGeometry x="950" y="350" width="200" height="80" as="geometry"/>
                </mxCell>
                <mxCell id="tol6Ed1nQ3kXIKXy76gK-9" value="Any time this happens you &lt;i&gt;might&lt;/i&gt; get class name collision" style="rounded=0;whiteSpace=wrap;html=1;strokeColor=#b85450;fontSize=17;fillColor=#f8cecc;" parent="yINglZ-rpd6273HVnU3L-1" vertex="1">
                    <mxGeometry x="950" y="465" width="200" height="80" as="geometry"/>
                </mxCell>
            </root>
        </mxGraphModel>
    </diagram>
    <diagram id="1-qJHl2QNYHXhS3Bn9hu" name="05 - provider">
        <mxGraphModel dx="567" dy="349" grid="1" gridSize="10" guides="1" tooltips="1" connect="1" arrows="1" fold="1" page="1" pageScale="1" pageWidth="1920" pageHeight="1200" math="0" shadow="0">
            <root>
                <mxCell id="107hayXSDiH1o2W-iEeF-0"/>
                <mxCell id="107hayXSDiH1o2W-iEeF-1" parent="107hayXSDiH1o2W-iEeF-0"/>
                <mxCell id="107hayXSDiH1o2W-iEeF-2" value="makeStyles" style="rounded=0;whiteSpace=wrap;html=1;strokeColor=#666666;fontSize=12;fillColor=#f5f5f5;fontColor=#333333;fontStyle=1" parent="107hayXSDiH1o2W-iEeF-1" vertex="1">
                    <mxGeometry x="620" y="380" width="250" height="30" as="geometry"/>
                </mxCell>
                <mxCell id="107hayXSDiH1o2W-iEeF-14" style="edgeStyle=orthogonalEdgeStyle;rounded=0;orthogonalLoop=1;jettySize=auto;html=1;exitX=0.5;exitY=1;exitDx=0;exitDy=0;strokeWidth=1;fontSize=10;fontColor=#000000;" parent="107hayXSDiH1o2W-iEeF-1" source="107hayXSDiH1o2W-iEeF-3" target="107hayXSDiH1o2W-iEeF-13" edge="1">
                    <mxGeometry relative="1" as="geometry"/>
                </mxCell>
                <mxCell id="107hayXSDiH1o2W-iEeF-17" style="edgeStyle=orthogonalEdgeStyle;rounded=0;orthogonalLoop=1;jettySize=auto;html=1;exitX=0.5;exitY=1;exitDx=0;exitDy=0;strokeWidth=1;fontSize=10;fontColor=#000000;" parent="107hayXSDiH1o2W-iEeF-1" source="107hayXSDiH1o2W-iEeF-3" target="107hayXSDiH1o2W-iEeF-16" edge="1">
                    <mxGeometry relative="1" as="geometry"/>
                </mxCell>
                <mxCell id="107hayXSDiH1o2W-iEeF-3" value="" style="rounded=0;whiteSpace=wrap;html=1;strokeColor=#666666;fontSize=12;fontColor=#333333;fillColor=#f5f5f5;" parent="107hayXSDiH1o2W-iEeF-1" vertex="1">
                    <mxGeometry x="620" y="410" width="250" height="50" as="geometry"/>
                </mxCell>
                <mxCell id="107hayXSDiH1o2W-iEeF-7" style="edgeStyle=orthogonalEdgeStyle;rounded=0;orthogonalLoop=1;jettySize=auto;html=1;exitX=1;exitY=0.5;exitDx=0;exitDy=0;strokeWidth=1;fontSize=14;fontColor=#000000;" parent="107hayXSDiH1o2W-iEeF-1" source="107hayXSDiH1o2W-iEeF-4" target="107hayXSDiH1o2W-iEeF-5" edge="1">
                    <mxGeometry relative="1" as="geometry"/>
                </mxCell>
                <mxCell id="107hayXSDiH1o2W-iEeF-4" value="heroContent" style="rounded=0;whiteSpace=wrap;html=1;strokeColor=#919191;fontSize=12;fontColor=#000000;" parent="107hayXSDiH1o2W-iEeF-1" vertex="1">
                    <mxGeometry x="630" y="420" width="70" height="30" as="geometry"/>
                </mxCell>
                <mxCell id="107hayXSDiH1o2W-iEeF-5" value="padding: '....'" style="rounded=0;whiteSpace=wrap;html=1;strokeColor=#919191;fontSize=12;fontColor=#000000;" parent="107hayXSDiH1o2W-iEeF-1" vertex="1">
                    <mxGeometry x="730" y="420" width="130" height="30" as="geometry"/>
                </mxCell>
                <mxCell id="107hayXSDiH1o2W-iEeF-9" value="{ heroContent: 'makeStyles-heroContent-2' }" style="rounded=0;whiteSpace=wrap;html=1;strokeColor=#919191;fontSize=10;fontColor=#000000;" parent="107hayXSDiH1o2W-iEeF-1" vertex="1">
                    <mxGeometry x="510" y="530" width="220" height="40" as="geometry"/>
                </mxCell>
                <mxCell id="107hayXSDiH1o2W-iEeF-10" value=".makeStyles-heroContent-2 {&amp;nbsp; &amp;nbsp;padding: '...'&amp;nbsp; &amp;nbsp; }" style="rounded=0;whiteSpace=wrap;html=1;strokeColor=#919191;fontSize=10;fontColor=#000000;" parent="107hayXSDiH1o2W-iEeF-1" vertex="1">
                    <mxGeometry x="760" y="530" width="220" height="40" as="geometry"/>
                </mxCell>
                <mxCell id="107hayXSDiH1o2W-iEeF-13" value="CSS" style="rounded=0;whiteSpace=wrap;html=1;strokeColor=#6c8ebf;fontSize=10;fillColor=#dae8fc;fontStyle=1" parent="107hayXSDiH1o2W-iEeF-1" vertex="1">
                    <mxGeometry x="760" y="510" width="220" height="20" as="geometry"/>
                </mxCell>
                <mxCell id="107hayXSDiH1o2W-iEeF-15" value="This CSS automatically gets added to the page" style="text;html=1;strokeColor=none;fillColor=none;align=center;verticalAlign=middle;whiteSpace=wrap;rounded=0;fontSize=10;fontColor=#000000;fontStyle=2" parent="107hayXSDiH1o2W-iEeF-1" vertex="1">
                    <mxGeometry x="805" y="575" width="130" height="20" as="geometry"/>
                </mxCell>
                <mxCell id="107hayXSDiH1o2W-iEeF-16" value="JS" style="rounded=0;whiteSpace=wrap;html=1;strokeColor=#6c8ebf;fontSize=10;fillColor=#dae8fc;fontStyle=1" parent="107hayXSDiH1o2W-iEeF-1" vertex="1">
                    <mxGeometry x="510" y="510" width="220" height="20" as="geometry"/>
                </mxCell>
                <mxCell id="107hayXSDiH1o2W-iEeF-18" value="We need to apply this randomly generated class name to some element in our component" style="text;html=1;strokeColor=none;fillColor=none;align=center;verticalAlign=middle;whiteSpace=wrap;rounded=0;fontSize=10;fontColor=#000000;fontStyle=2" parent="107hayXSDiH1o2W-iEeF-1" vertex="1">
                    <mxGeometry x="532.5" y="580" width="175" height="20" as="geometry"/>
                </mxCell>
            </root>
        </mxGraphModel>
    </diagram>
    <diagram name="06 - prod" id="aLKZlDKIxSnodwUBRL1F">
        <mxGraphModel dx="492" dy="304" grid="1" gridSize="10" guides="1" tooltips="1" connect="1" arrows="1" fold="1" page="1" pageScale="1" pageWidth="1920" pageHeight="1200" math="0" shadow="0">
            <root>
                <mxCell id="pouxzOyr-3d1T8fRTFK_-0"/>
                <mxCell id="pouxzOyr-3d1T8fRTFK_-1" parent="pouxzOyr-3d1T8fRTFK_-0"/>
                <mxCell id="pouxzOyr-3d1T8fRTFK_-2" value="makeStyles" style="rounded=0;whiteSpace=wrap;html=1;strokeColor=#666666;fontSize=12;fillColor=#f5f5f5;fontColor=#333333;fontStyle=1" parent="pouxzOyr-3d1T8fRTFK_-1" vertex="1">
                    <mxGeometry x="620" y="380" width="250" height="30" as="geometry"/>
                </mxCell>
                <mxCell id="pouxzOyr-3d1T8fRTFK_-3" style="edgeStyle=orthogonalEdgeStyle;rounded=0;orthogonalLoop=1;jettySize=auto;html=1;exitX=0.5;exitY=1;exitDx=0;exitDy=0;strokeWidth=1;fontSize=10;fontColor=#000000;" parent="pouxzOyr-3d1T8fRTFK_-1" source="pouxzOyr-3d1T8fRTFK_-5" target="pouxzOyr-3d1T8fRTFK_-11" edge="1">
                    <mxGeometry relative="1" as="geometry"/>
                </mxCell>
                <mxCell id="pouxzOyr-3d1T8fRTFK_-4" style="edgeStyle=orthogonalEdgeStyle;rounded=0;orthogonalLoop=1;jettySize=auto;html=1;exitX=0.5;exitY=1;exitDx=0;exitDy=0;strokeWidth=1;fontSize=10;fontColor=#000000;" parent="pouxzOyr-3d1T8fRTFK_-1" source="pouxzOyr-3d1T8fRTFK_-5" target="pouxzOyr-3d1T8fRTFK_-13" edge="1">
                    <mxGeometry relative="1" as="geometry"/>
                </mxCell>
                <mxCell id="pouxzOyr-3d1T8fRTFK_-5" value="" style="rounded=0;whiteSpace=wrap;html=1;strokeColor=#666666;fontSize=12;fontColor=#333333;fillColor=#f5f5f5;" parent="pouxzOyr-3d1T8fRTFK_-1" vertex="1">
                    <mxGeometry x="620" y="410" width="250" height="50" as="geometry"/>
                </mxCell>
                <mxCell id="pouxzOyr-3d1T8fRTFK_-6" style="edgeStyle=orthogonalEdgeStyle;rounded=0;orthogonalLoop=1;jettySize=auto;html=1;exitX=1;exitY=0.5;exitDx=0;exitDy=0;strokeWidth=1;fontSize=14;fontColor=#000000;" parent="pouxzOyr-3d1T8fRTFK_-1" source="pouxzOyr-3d1T8fRTFK_-7" target="pouxzOyr-3d1T8fRTFK_-8" edge="1">
                    <mxGeometry relative="1" as="geometry"/>
                </mxCell>
                <mxCell id="pouxzOyr-3d1T8fRTFK_-7" value="heroContent" style="rounded=0;whiteSpace=wrap;html=1;strokeColor=#919191;fontSize=12;fontColor=#000000;" parent="pouxzOyr-3d1T8fRTFK_-1" vertex="1">
                    <mxGeometry x="630" y="420" width="70" height="30" as="geometry"/>
                </mxCell>
                <mxCell id="pouxzOyr-3d1T8fRTFK_-8" value="padding: '....'" style="rounded=0;whiteSpace=wrap;html=1;strokeColor=#919191;fontSize=12;fontColor=#000000;" parent="pouxzOyr-3d1T8fRTFK_-1" vertex="1">
                    <mxGeometry x="730" y="420" width="130" height="30" as="geometry"/>
                </mxCell>
                <mxCell id="pouxzOyr-3d1T8fRTFK_-9" value="{ heroContent: 'jss1' }" style="rounded=0;whiteSpace=wrap;html=1;strokeColor=#919191;fontSize=10;fontColor=#000000;" parent="pouxzOyr-3d1T8fRTFK_-1" vertex="1">
                    <mxGeometry x="510" y="530" width="220" height="40" as="geometry"/>
                </mxCell>
                <mxCell id="pouxzOyr-3d1T8fRTFK_-10" value=".jss1 {&amp;nbsp; &amp;nbsp;padding: '...'&amp;nbsp; &amp;nbsp; }" style="rounded=0;whiteSpace=wrap;html=1;strokeColor=#919191;fontSize=10;fontColor=#000000;" parent="pouxzOyr-3d1T8fRTFK_-1" vertex="1">
                    <mxGeometry x="760" y="530" width="220" height="40" as="geometry"/>
                </mxCell>
                <mxCell id="pouxzOyr-3d1T8fRTFK_-11" value="CSS" style="rounded=0;whiteSpace=wrap;html=1;strokeColor=#6c8ebf;fontSize=10;fillColor=#dae8fc;fontStyle=1" parent="pouxzOyr-3d1T8fRTFK_-1" vertex="1">
                    <mxGeometry x="760" y="510" width="220" height="20" as="geometry"/>
                </mxCell>
                <mxCell id="pouxzOyr-3d1T8fRTFK_-13" value="JS" style="rounded=0;whiteSpace=wrap;html=1;strokeColor=#6c8ebf;fontSize=10;fillColor=#dae8fc;fontStyle=1" parent="pouxzOyr-3d1T8fRTFK_-1" vertex="1">
                    <mxGeometry x="510" y="510" width="220" height="20" as="geometry"/>
                </mxCell>
                <mxCell id="pouxzOyr-3d1T8fRTFK_-16" style="edgeStyle=orthogonalEdgeStyle;rounded=0;orthogonalLoop=1;jettySize=auto;html=1;exitX=0.5;exitY=0;exitDx=0;exitDy=0;entryX=0.5;entryY=1;entryDx=0;entryDy=0;strokeWidth=1;fontSize=10;fontColor=#000000;" parent="pouxzOyr-3d1T8fRTFK_-1" source="pouxzOyr-3d1T8fRTFK_-15" target="pouxzOyr-3d1T8fRTFK_-10" edge="1">
                    <mxGeometry relative="1" as="geometry"/>
                </mxCell>
                <mxCell id="pouxzOyr-3d1T8fRTFK_-15" value="&lt;b&gt;Assumption&lt;/b&gt;: &lt;i&gt;In production only&lt;/i&gt;, we might want to extract this generated CSS selector + rule into a separate CSS stylesheet" style="rounded=0;whiteSpace=wrap;html=1;strokeColor=#b85450;fontSize=10;fillColor=#f8cecc;" parent="pouxzOyr-3d1T8fRTFK_-1" vertex="1">
                    <mxGeometry x="760" y="600" width="220" height="60" as="geometry"/>
                </mxCell>
                <mxCell id="pouxzOyr-3d1T8fRTFK_-18" style="edgeStyle=orthogonalEdgeStyle;rounded=0;orthogonalLoop=1;jettySize=auto;html=1;exitX=0.5;exitY=0;exitDx=0;exitDy=0;entryX=0.5;entryY=1;entryDx=0;entryDy=0;strokeWidth=1;fontSize=10;fontColor=#000000;" parent="pouxzOyr-3d1T8fRTFK_-1" source="pouxzOyr-3d1T8fRTFK_-17" target="pouxzOyr-3d1T8fRTFK_-15" edge="1">
                    <mxGeometry relative="1" as="geometry"/>
                </mxCell>
                <mxCell id="pouxzOyr-3d1T8fRTFK_-17" value="&lt;b&gt;To make the generated CSS as small as possible, the selector is turned into something like 'jss1', 'jss2', 'jss3', etc&lt;/b&gt;" style="rounded=0;whiteSpace=wrap;html=1;strokeColor=#b85450;fontSize=10;fillColor=#f8cecc;" parent="pouxzOyr-3d1T8fRTFK_-1" vertex="1">
                    <mxGeometry x="760" y="680" width="220" height="60" as="geometry"/>
                </mxCell>
            </root>
        </mxGraphModel>
    </diagram>
    <diagram id="90j0phSf3-xJyvN56E7d" name="20- jss">
        <mxGraphModel dx="653" dy="403" grid="1" gridSize="10" guides="1" tooltips="1" connect="1" arrows="1" fold="1" page="1" pageScale="1" pageWidth="1920" pageHeight="1200" math="0" shadow="0">
            <root>
                <mxCell id="oiT0OOBpZPBv5z5fUkxR-0"/>
                <mxCell id="oiT0OOBpZPBv5z5fUkxR-1" parent="oiT0OOBpZPBv5z5fUkxR-0"/>
                <mxCell id="oiT0OOBpZPBv5z5fUkxR-2" value="Container" style="rounded=0;whiteSpace=wrap;html=1;strokeColor=#82b366;fontSize=15;align=center;fontStyle=1;fillColor=#d5e8d4;" vertex="1" parent="oiT0OOBpZPBv5z5fUkxR-1">
                    <mxGeometry x="500" y="470" width="210" height="40" as="geometry"/>
                </mxCell>
                <mxCell id="oiT0OOBpZPBv5z5fUkxR-3" value="&amp;lt;div class=&quot;jss1&quot;&amp;gt;&lt;br&gt;&amp;nbsp; ...&lt;br&gt;&amp;lt;/div&amp;gt;" style="rounded=0;whiteSpace=wrap;html=1;strokeColor=#000000;fontSize=16;align=left;fontStyle=0;spacingLeft=20;" vertex="1" parent="oiT0OOBpZPBv5z5fUkxR-1">
                    <mxGeometry x="500" y="510" width="210" height="90" as="geometry"/>
                </mxCell>
                <mxCell id="oiT0OOBpZPBv5z5fUkxR-4" value="Landing Page" style="rounded=0;whiteSpace=wrap;html=1;strokeColor=#6c8ebf;fontSize=15;align=center;fontStyle=1;fillColor=#dae8fc;" vertex="1" parent="oiT0OOBpZPBv5z5fUkxR-1">
                    <mxGeometry x="500" y="320" width="210" height="40" as="geometry"/>
                </mxCell>
                <mxCell id="oiT0OOBpZPBv5z5fUkxR-5" value="&amp;nbsp; &amp;lt;div class=&quot;jss1&quot;&amp;gt;&lt;br style=&quot;font-size: 16px&quot;&gt;&amp;nbsp; &amp;nbsp; ....&lt;br style=&quot;font-size: 16px&quot;&gt;&amp;nbsp; &amp;lt;/div&amp;gt;" style="rounded=0;whiteSpace=wrap;html=1;strokeColor=#000000;fontSize=16;align=left;fontStyle=0;spacingLeft=20;" vertex="1" parent="oiT0OOBpZPBv5z5fUkxR-1">
                    <mxGeometry x="500" y="360" width="210" height="90" as="geometry"/>
                </mxCell>
                <mxCell id="oiT0OOBpZPBv5z5fUkxR-7" style="edgeStyle=orthogonalEdgeStyle;rounded=0;orthogonalLoop=1;jettySize=auto;html=1;exitX=0;exitY=0.5;exitDx=0;exitDy=0;entryX=1;entryY=0.5;entryDx=0;entryDy=0;strokeWidth=2;fontSize=16;fontColor=#000000;" edge="1" parent="oiT0OOBpZPBv5z5fUkxR-1" target="oiT0OOBpZPBv5z5fUkxR-4">
                    <mxGeometry relative="1" as="geometry">
                        <mxPoint x="790" y="340" as="sourcePoint"/>
                    </mxGeometry>
                </mxCell>
                <mxCell id="oiT0OOBpZPBv5z5fUkxR-9" value=".jss1 { border: 3px solid black }" style="rounded=0;whiteSpace=wrap;html=1;strokeColor=#9673a6;fontSize=16;align=center;fillColor=#e1d5e7;fontStyle=1" vertex="1" parent="oiT0OOBpZPBv5z5fUkxR-1">
                    <mxGeometry x="790" y="320" width="250" height="80" as="geometry"/>
                </mxCell>
                <mxCell id="oiT0OOBpZPBv5z5fUkxR-10" style="edgeStyle=orthogonalEdgeStyle;rounded=0;orthogonalLoop=1;jettySize=auto;html=1;exitX=0;exitY=0.5;exitDx=0;exitDy=0;entryX=1;entryY=0.5;entryDx=0;entryDy=0;strokeWidth=2;fontSize=16;fontColor=#000000;" edge="1" parent="oiT0OOBpZPBv5z5fUkxR-1">
                    <mxGeometry relative="1" as="geometry">
                        <mxPoint x="710" y="495" as="targetPoint"/>
                        <mxPoint x="790" y="494.9999999999999" as="sourcePoint"/>
                    </mxGeometry>
                </mxCell>
                <mxCell id="oiT0OOBpZPBv5z5fUkxR-12" value=".jss1 { padding: 30px; }" style="rounded=0;whiteSpace=wrap;html=1;strokeColor=#d6b656;fontSize=16;align=center;fillColor=#fff2cc;fontStyle=1" vertex="1" parent="oiT0OOBpZPBv5z5fUkxR-1">
                    <mxGeometry x="790" y="470" width="250" height="80" as="geometry"/>
                </mxCell>
            </root>
        </mxGraphModel>
    </diagram>
    <diagram id="jHqoCG7NzCEIe0MiY_g2" name="21 - notes">
        <mxGraphModel dx="601" dy="370" grid="1" gridSize="10" guides="1" tooltips="1" connect="1" arrows="1" fold="1" page="1" pageScale="1" pageWidth="1920" pageHeight="1200" math="0" shadow="0">
            <root>
                <mxCell id="qJr54vuAKx0AISm5hmXr-0"/>
                <mxCell id="qJr54vuAKx0AISm5hmXr-1" parent="qJr54vuAKx0AISm5hmXr-0"/>
                <mxCell id="l0Xhx-92u50MvXM9GR0p-2" style="edgeStyle=orthogonalEdgeStyle;rounded=0;orthogonalLoop=1;jettySize=auto;html=1;exitX=0.5;exitY=1;exitDx=0;exitDy=0;strokeWidth=2;fontSize=16;fontColor=#000000;" edge="1" parent="qJr54vuAKx0AISm5hmXr-1" source="l0Xhx-92u50MvXM9GR0p-0" target="l0Xhx-92u50MvXM9GR0p-1">
                    <mxGeometry relative="1" as="geometry"/>
                </mxCell>
                <mxCell id="l0Xhx-92u50MvXM9GR0p-0" value="Other CSS-in-JS libraries might have better class name generation" style="rounded=0;whiteSpace=wrap;html=1;strokeColor=#000000;fontSize=16;fontColor=#000000;align=center;fontStyle=1" vertex="1" parent="qJr54vuAKx0AISm5hmXr-1">
                    <mxGeometry x="590" y="350" width="430" height="70" as="geometry"/>
                </mxCell>
                <mxCell id="l0Xhx-92u50MvXM9GR0p-1" value="Other CSS-in-JS libraries will have a different way of customizing the class name - check the docs" style="rounded=0;whiteSpace=wrap;html=1;strokeColor=#000000;fontSize=16;fontColor=#000000;align=center;fontStyle=1" vertex="1" parent="qJr54vuAKx0AISm5hmXr-1">
                    <mxGeometry x="590" y="470" width="430" height="70" as="geometry"/>
                </mxCell>
            </root>
        </mxGraphModel>
    </diagram>
    <diagram id="wAy7MjlmeaXP-bLT9Po6" name="02 - nav">
        <mxGraphModel dx="832" dy="382" grid="1" gridSize="10" guides="1" tooltips="1" connect="1" arrows="1" fold="1" page="1" pageScale="1" pageWidth="1920" pageHeight="1200" math="0" shadow="0">
            <root>
                <mxCell id="lTavB5bBTD1L7kbtHqPV-0"/>
                <mxCell id="lTavB5bBTD1L7kbtHqPV-1" parent="lTavB5bBTD1L7kbtHqPV-0"/>
                <mxCell id="lpmOsRLP1Xd5v5KdUxW0-0" value="Home Page" style="rounded=0;whiteSpace=wrap;html=1;fontSize=23;align=center;fillColor=#dae8fc;strokeColor=#6c8ebf;fontStyle=1" parent="lTavB5bBTD1L7kbtHqPV-1" vertex="1">
                    <mxGeometry x="620" y="270" width="210" height="50" as="geometry"/>
                </mxCell>
                <mxCell id="lpmOsRLP1Xd5v5KdUxW0-1" value="Pricing Page" style="rounded=0;whiteSpace=wrap;html=1;fontSize=23;align=center;fillColor=#dae8fc;strokeColor=#6c8ebf;fontStyle=1" parent="lTavB5bBTD1L7kbtHqPV-1" vertex="1">
                    <mxGeometry x="620" y="330" width="210" height="50" as="geometry"/>
                </mxCell>
                <mxCell id="uNUDjK5FhiVFIq7jjuDZ-0" value="Sign In Page" style="rounded=0;whiteSpace=wrap;html=1;fontSize=23;align=center;fillColor=#d5e8d4;strokeColor=#82b366;fontStyle=1" parent="lTavB5bBTD1L7kbtHqPV-1" vertex="1">
                    <mxGeometry x="620" y="430" width="210" height="50" as="geometry"/>
                </mxCell>
                <mxCell id="uNUDjK5FhiVFIq7jjuDZ-1" value="Sign Up Page" style="rounded=0;whiteSpace=wrap;html=1;fontSize=23;align=center;fillColor=#d5e8d4;strokeColor=#82b366;fontStyle=1" parent="lTavB5bBTD1L7kbtHqPV-1" vertex="1">
                    <mxGeometry x="620" y="490" width="210" height="50" as="geometry"/>
                </mxCell>
                <mxCell id="uNUDjK5FhiVFIq7jjuDZ-2" value="Dashboard Page" style="rounded=0;whiteSpace=wrap;html=1;fontSize=23;align=center;fillColor=#ffe6cc;strokeColor=#d79b00;fontStyle=1" parent="lTavB5bBTD1L7kbtHqPV-1" vertex="1">
                    <mxGeometry x="620" y="590" width="210" height="50" as="geometry"/>
                </mxCell>
                <mxCell id="DHLbsSHZOrCVxgc2j8zj-2" style="edgeStyle=orthogonalEdgeStyle;rounded=0;orthogonalLoop=1;jettySize=auto;html=1;exitX=1;exitY=0.5;exitDx=0;exitDy=0;fontSize=22;" parent="lTavB5bBTD1L7kbtHqPV-1" source="uNUDjK5FhiVFIq7jjuDZ-13" target="lpmOsRLP1Xd5v5KdUxW0-0" edge="1">
                    <mxGeometry relative="1" as="geometry"/>
                </mxCell>
                <mxCell id="uNUDjK5FhiVFIq7jjuDZ-13" value="/" style="rounded=1;whiteSpace=wrap;html=1;fontSize=22;fillColor=#f5f5f5;strokeColor=#666666;fontColor=#333333;" parent="lTavB5bBTD1L7kbtHqPV-1" vertex="1">
                    <mxGeometry x="420" y="275" width="140" height="40" as="geometry"/>
                </mxCell>
                <mxCell id="DHLbsSHZOrCVxgc2j8zj-3" style="edgeStyle=orthogonalEdgeStyle;rounded=0;orthogonalLoop=1;jettySize=auto;html=1;exitX=1;exitY=0.5;exitDx=0;exitDy=0;fontSize=22;" parent="lTavB5bBTD1L7kbtHqPV-1" source="uNUDjK5FhiVFIq7jjuDZ-14" target="lpmOsRLP1Xd5v5KdUxW0-1" edge="1">
                    <mxGeometry relative="1" as="geometry"/>
                </mxCell>
                <mxCell id="uNUDjK5FhiVFIq7jjuDZ-14" value="/pricing" style="rounded=1;whiteSpace=wrap;html=1;fontSize=22;fillColor=#f5f5f5;strokeColor=#666666;fontColor=#333333;" parent="lTavB5bBTD1L7kbtHqPV-1" vertex="1">
                    <mxGeometry x="420" y="335" width="140" height="40" as="geometry"/>
                </mxCell>
                <mxCell id="DHLbsSHZOrCVxgc2j8zj-4" style="edgeStyle=orthogonalEdgeStyle;rounded=0;orthogonalLoop=1;jettySize=auto;html=1;exitX=1;exitY=0.5;exitDx=0;exitDy=0;fontSize=22;" parent="lTavB5bBTD1L7kbtHqPV-1" source="uNUDjK5FhiVFIq7jjuDZ-15" target="uNUDjK5FhiVFIq7jjuDZ-0" edge="1">
                    <mxGeometry relative="1" as="geometry"/>
                </mxCell>
                <mxCell id="uNUDjK5FhiVFIq7jjuDZ-15" value="/auth/signin" style="rounded=1;whiteSpace=wrap;html=1;fontSize=22;fillColor=#f5f5f5;strokeColor=#666666;fontColor=#333333;" parent="lTavB5bBTD1L7kbtHqPV-1" vertex="1">
                    <mxGeometry x="420" y="435" width="140" height="40" as="geometry"/>
                </mxCell>
                <mxCell id="DHLbsSHZOrCVxgc2j8zj-5" style="edgeStyle=orthogonalEdgeStyle;rounded=0;orthogonalLoop=1;jettySize=auto;html=1;exitX=1;exitY=0.5;exitDx=0;exitDy=0;fontSize=22;" parent="lTavB5bBTD1L7kbtHqPV-1" source="DHLbsSHZOrCVxgc2j8zj-0" target="uNUDjK5FhiVFIq7jjuDZ-1" edge="1">
                    <mxGeometry relative="1" as="geometry"/>
                </mxCell>
                <mxCell id="DHLbsSHZOrCVxgc2j8zj-0" value="/auth/signup" style="rounded=1;whiteSpace=wrap;html=1;fontSize=22;fillColor=#f5f5f5;strokeColor=#666666;fontColor=#333333;" parent="lTavB5bBTD1L7kbtHqPV-1" vertex="1">
                    <mxGeometry x="420" y="495" width="140" height="40" as="geometry"/>
                </mxCell>
                <mxCell id="DHLbsSHZOrCVxgc2j8zj-6" style="edgeStyle=orthogonalEdgeStyle;rounded=0;orthogonalLoop=1;jettySize=auto;html=1;exitX=1;exitY=0.5;exitDx=0;exitDy=0;fontSize=22;" parent="lTavB5bBTD1L7kbtHqPV-1" source="DHLbsSHZOrCVxgc2j8zj-1" target="uNUDjK5FhiVFIq7jjuDZ-2" edge="1">
                    <mxGeometry relative="1" as="geometry"/>
                </mxCell>
                <mxCell id="DHLbsSHZOrCVxgc2j8zj-1" value="/dashboard" style="rounded=1;whiteSpace=wrap;html=1;fontSize=22;fillColor=#f5f5f5;strokeColor=#666666;fontColor=#333333;" parent="lTavB5bBTD1L7kbtHqPV-1" vertex="1">
                    <mxGeometry x="420" y="595" width="140" height="40" as="geometry"/>
                </mxCell>
            </root>
        </mxGraphModel>
    </diagram>
    <diagram name="04 - container" id="MNVDLggC_M7E6xk-wFqv">
        <mxGraphModel dx="653" dy="403" grid="1" gridSize="10" guides="1" tooltips="1" connect="1" arrows="1" fold="1" page="1" pageScale="1" pageWidth="1920" pageHeight="1200" math="0" shadow="0">
            <root>
                <mxCell id="ywg_QWt3erFJNb5_n5T8-0"/>
                <mxCell id="ywg_QWt3erFJNb5_n5T8-1" parent="ywg_QWt3erFJNb5_n5T8-0"/>
                <mxCell id="bDNYqjB3rUDvewXshoKl-6" value="" style="rounded=1;whiteSpace=wrap;html=1;strokeColor=#000000;fontSize=31;fontColor=#000000;" vertex="1" parent="ywg_QWt3erFJNb5_n5T8-1">
                    <mxGeometry x="490" y="370" width="450" height="130" as="geometry"/>
                </mxCell>
                <mxCell id="_EjQ4giPUbiKH63FWSAP-7" value="From the perspective of the marketing project, this is completely reasonable routing" style="text;html=1;strokeColor=none;fillColor=none;align=center;verticalAlign=middle;whiteSpace=wrap;rounded=0;fontSize=18;fontColor=#000000;" vertex="1" parent="ywg_QWt3erFJNb5_n5T8-1">
                    <mxGeometry x="530" y="500" width="370" height="60" as="geometry"/>
                </mxCell>
                <mxCell id="bDNYqjB3rUDvewXshoKl-0" value="Home Page" style="rounded=0;whiteSpace=wrap;html=1;fontSize=23;align=center;fillColor=#dae8fc;strokeColor=#6c8ebf;fontStyle=1" vertex="1" parent="ywg_QWt3erFJNb5_n5T8-1">
                    <mxGeometry x="710" y="380" width="210" height="50" as="geometry"/>
                </mxCell>
                <mxCell id="bDNYqjB3rUDvewXshoKl-1" value="Pricing Page" style="rounded=0;whiteSpace=wrap;html=1;fontSize=23;align=center;fillColor=#dae8fc;strokeColor=#6c8ebf;fontStyle=1" vertex="1" parent="ywg_QWt3erFJNb5_n5T8-1">
                    <mxGeometry x="710" y="440" width="210" height="50" as="geometry"/>
                </mxCell>
                <mxCell id="bDNYqjB3rUDvewXshoKl-2" style="edgeStyle=orthogonalEdgeStyle;rounded=0;orthogonalLoop=1;jettySize=auto;html=1;exitX=1;exitY=0.5;exitDx=0;exitDy=0;fontSize=22;" edge="1" parent="ywg_QWt3erFJNb5_n5T8-1" source="bDNYqjB3rUDvewXshoKl-3" target="bDNYqjB3rUDvewXshoKl-0">
                    <mxGeometry relative="1" as="geometry"/>
                </mxCell>
                <mxCell id="bDNYqjB3rUDvewXshoKl-3" value="/" style="rounded=1;whiteSpace=wrap;html=1;fontSize=22;fillColor=#f5f5f5;strokeColor=#666666;fontColor=#333333;" vertex="1" parent="ywg_QWt3erFJNb5_n5T8-1">
                    <mxGeometry x="510" y="385" width="140" height="40" as="geometry"/>
                </mxCell>
                <mxCell id="bDNYqjB3rUDvewXshoKl-4" style="edgeStyle=orthogonalEdgeStyle;rounded=0;orthogonalLoop=1;jettySize=auto;html=1;exitX=1;exitY=0.5;exitDx=0;exitDy=0;fontSize=22;" edge="1" parent="ywg_QWt3erFJNb5_n5T8-1" source="bDNYqjB3rUDvewXshoKl-5" target="bDNYqjB3rUDvewXshoKl-1">
                    <mxGeometry relative="1" as="geometry"/>
                </mxCell>
                <mxCell id="bDNYqjB3rUDvewXshoKl-5" value="/pricing" style="rounded=1;whiteSpace=wrap;html=1;fontSize=22;fillColor=#f5f5f5;strokeColor=#666666;fontColor=#333333;" vertex="1" parent="ywg_QWt3erFJNb5_n5T8-1">
                    <mxGeometry x="510" y="445" width="140" height="40" as="geometry"/>
                </mxCell>
            </root>
        </mxGraphModel>
    </diagram>
    <diagram name="05 - car" id="e21zgw8PKArVbDqZyv-n">
        <mxGraphModel dx="639" dy="394" grid="1" gridSize="10" guides="1" tooltips="1" connect="1" arrows="1" fold="1" page="1" pageScale="1" pageWidth="1920" pageHeight="1200" math="0" shadow="0">
            <root>
                <mxCell id="uTkp-5MwuHU01GvmwtXx-0"/>
                <mxCell id="uTkp-5MwuHU01GvmwtXx-1" parent="uTkp-5MwuHU01GvmwtXx-0"/>
                <mxCell id="uTkp-5MwuHU01GvmwtXx-2" value="" style="rounded=1;whiteSpace=wrap;html=1;strokeColor=#000000;fontSize=31;fontColor=#000000;" vertex="1" parent="uTkp-5MwuHU01GvmwtXx-1">
                    <mxGeometry x="490" y="370" width="450" height="130" as="geometry"/>
                </mxCell>
                <mxCell id="uTkp-5MwuHU01GvmwtXx-4" value="Home Page" style="rounded=0;whiteSpace=wrap;html=1;fontSize=23;align=center;fillColor=#dae8fc;strokeColor=#6c8ebf;fontStyle=0" vertex="1" parent="uTkp-5MwuHU01GvmwtXx-1">
                    <mxGeometry x="710" y="380" width="210" height="50" as="geometry"/>
                </mxCell>
                <mxCell id="uTkp-5MwuHU01GvmwtXx-5" value="Pricing Page" style="rounded=0;whiteSpace=wrap;html=1;fontSize=23;align=center;fillColor=#dae8fc;strokeColor=#6c8ebf;fontStyle=0" vertex="1" parent="uTkp-5MwuHU01GvmwtXx-1">
                    <mxGeometry x="710" y="440" width="210" height="50" as="geometry"/>
                </mxCell>
                <mxCell id="uTkp-5MwuHU01GvmwtXx-6" style="edgeStyle=orthogonalEdgeStyle;rounded=0;orthogonalLoop=1;jettySize=auto;html=1;exitX=1;exitY=0.5;exitDx=0;exitDy=0;fontSize=22;" edge="1" parent="uTkp-5MwuHU01GvmwtXx-1" source="uTkp-5MwuHU01GvmwtXx-7" target="uTkp-5MwuHU01GvmwtXx-4">
                    <mxGeometry relative="1" as="geometry"/>
                </mxCell>
                <mxCell id="uTkp-5MwuHU01GvmwtXx-7" value="/" style="rounded=1;whiteSpace=wrap;html=1;fontSize=22;fillColor=#f5f5f5;strokeColor=#666666;fontColor=#333333;" vertex="1" parent="uTkp-5MwuHU01GvmwtXx-1">
                    <mxGeometry x="510" y="385" width="140" height="40" as="geometry"/>
                </mxCell>
                <mxCell id="uTkp-5MwuHU01GvmwtXx-8" style="edgeStyle=orthogonalEdgeStyle;rounded=0;orthogonalLoop=1;jettySize=auto;html=1;exitX=1;exitY=0.5;exitDx=0;exitDy=0;fontSize=22;" edge="1" parent="uTkp-5MwuHU01GvmwtXx-1" source="uTkp-5MwuHU01GvmwtXx-9" target="uTkp-5MwuHU01GvmwtXx-5">
                    <mxGeometry relative="1" as="geometry"/>
                </mxCell>
                <mxCell id="uTkp-5MwuHU01GvmwtXx-9" value="/pricing" style="rounded=1;whiteSpace=wrap;html=1;fontSize=22;fillColor=#f5f5f5;strokeColor=#666666;fontColor=#333333;" vertex="1" parent="uTkp-5MwuHU01GvmwtXx-1">
                    <mxGeometry x="510" y="445" width="140" height="40" as="geometry"/>
                </mxCell>
                <mxCell id="IH8X5Ms15AQstHRmJS9t-0" value="" style="rounded=1;whiteSpace=wrap;html=1;strokeColor=#000000;fontSize=31;fontColor=#000000;" vertex="1" parent="uTkp-5MwuHU01GvmwtXx-1">
                    <mxGeometry x="490" y="610" width="450" height="130" as="geometry"/>
                </mxCell>
                <mxCell id="IH8X5Ms15AQstHRmJS9t-1" value="Boat Home Page" style="rounded=0;whiteSpace=wrap;html=1;fontSize=23;align=center;fillColor=#ffe6cc;strokeColor=#d79b00;fontStyle=0" vertex="1" parent="uTkp-5MwuHU01GvmwtXx-1">
                    <mxGeometry x="710" y="620" width="210" height="50" as="geometry"/>
                </mxCell>
                <mxCell id="IH8X5Ms15AQstHRmJS9t-2" value="Boat Pricing Page" style="rounded=0;whiteSpace=wrap;html=1;fontSize=23;align=center;fillColor=#ffe6cc;strokeColor=#d79b00;fontStyle=0" vertex="1" parent="uTkp-5MwuHU01GvmwtXx-1">
                    <mxGeometry x="710" y="680" width="210" height="50" as="geometry"/>
                </mxCell>
                <mxCell id="IH8X5Ms15AQstHRmJS9t-3" style="edgeStyle=orthogonalEdgeStyle;rounded=0;orthogonalLoop=1;jettySize=auto;html=1;exitX=1;exitY=0.5;exitDx=0;exitDy=0;fontSize=22;" edge="1" parent="uTkp-5MwuHU01GvmwtXx-1" source="IH8X5Ms15AQstHRmJS9t-4" target="IH8X5Ms15AQstHRmJS9t-1">
                    <mxGeometry relative="1" as="geometry"/>
                </mxCell>
                <mxCell id="IH8X5Ms15AQstHRmJS9t-4" value="???" style="rounded=1;whiteSpace=wrap;html=1;fontSize=22;fillColor=#f5f5f5;strokeColor=#666666;fontColor=#333333;" vertex="1" parent="uTkp-5MwuHU01GvmwtXx-1">
                    <mxGeometry x="510" y="625" width="140" height="40" as="geometry"/>
                </mxCell>
                <mxCell id="IH8X5Ms15AQstHRmJS9t-5" style="edgeStyle=orthogonalEdgeStyle;rounded=0;orthogonalLoop=1;jettySize=auto;html=1;exitX=1;exitY=0.5;exitDx=0;exitDy=0;fontSize=22;" edge="1" parent="uTkp-5MwuHU01GvmwtXx-1" source="IH8X5Ms15AQstHRmJS9t-6" target="IH8X5Ms15AQstHRmJS9t-2">
                    <mxGeometry relative="1" as="geometry"/>
                </mxCell>
                <mxCell id="IH8X5Ms15AQstHRmJS9t-6" value="???" style="rounded=1;whiteSpace=wrap;html=1;fontSize=22;fillColor=#f5f5f5;strokeColor=#666666;fontColor=#333333;" vertex="1" parent="uTkp-5MwuHU01GvmwtXx-1">
                    <mxGeometry x="510" y="685" width="140" height="40" as="geometry"/>
                </mxCell>
                <mxCell id="IH8X5Ms15AQstHRmJS9t-7" value="What if we decided to start selling boats in addition to our dashboard product?" style="rounded=0;whiteSpace=wrap;html=1;strokeColor=#b85450;fontSize=18;fillColor=#f8cecc;fontStyle=1" vertex="1" parent="uTkp-5MwuHU01GvmwtXx-1">
                    <mxGeometry x="533.4399999999999" y="520" width="363.12" height="70" as="geometry"/>
                </mxCell>
            </root>
        </mxGraphModel>
    </diagram>
    <diagram name="06 - rename" id="uGAQIYmfdxVsgp-95E7W">
        <mxGraphModel dx="715" dy="441" grid="1" gridSize="10" guides="1" tooltips="1" connect="1" arrows="1" fold="1" page="1" pageScale="1" pageWidth="1920" pageHeight="1200" math="0" shadow="0">
            <root>
                <mxCell id="kdSu3bQFjiPMDvmhHRp5-0"/>
                <mxCell id="kdSu3bQFjiPMDvmhHRp5-1" parent="kdSu3bQFjiPMDvmhHRp5-0"/>
                <mxCell id="kdSu3bQFjiPMDvmhHRp5-2" value="" style="rounded=1;whiteSpace=wrap;html=1;strokeColor=#000000;fontSize=31;fontColor=#000000;" vertex="1" parent="kdSu3bQFjiPMDvmhHRp5-1">
                    <mxGeometry x="350" y="370" width="590" height="130" as="geometry"/>
                </mxCell>
                <mxCell id="kdSu3bQFjiPMDvmhHRp5-3" value="Home Page" style="rounded=0;whiteSpace=wrap;html=1;fontSize=23;align=center;fillColor=#dae8fc;strokeColor=#6c8ebf;fontStyle=0" vertex="1" parent="kdSu3bQFjiPMDvmhHRp5-1">
                    <mxGeometry x="710" y="380" width="210" height="50" as="geometry"/>
                </mxCell>
                <mxCell id="kdSu3bQFjiPMDvmhHRp5-4" value="Pricing Page" style="rounded=0;whiteSpace=wrap;html=1;fontSize=23;align=center;fillColor=#dae8fc;strokeColor=#6c8ebf;fontStyle=0" vertex="1" parent="kdSu3bQFjiPMDvmhHRp5-1">
                    <mxGeometry x="710" y="440" width="210" height="50" as="geometry"/>
                </mxCell>
                <mxCell id="kdSu3bQFjiPMDvmhHRp5-5" style="edgeStyle=orthogonalEdgeStyle;rounded=0;orthogonalLoop=1;jettySize=auto;html=1;exitX=1;exitY=0.5;exitDx=0;exitDy=0;fontSize=22;" edge="1" parent="kdSu3bQFjiPMDvmhHRp5-1" source="kdSu3bQFjiPMDvmhHRp5-6" target="kdSu3bQFjiPMDvmhHRp5-3">
                    <mxGeometry relative="1" as="geometry"/>
                </mxCell>
                <mxCell id="kdSu3bQFjiPMDvmhHRp5-6" value="/products/dashboards/" style="rounded=1;whiteSpace=wrap;html=1;fontSize=22;fillColor=#f5f5f5;strokeColor=#666666;fontColor=#333333;" vertex="1" parent="kdSu3bQFjiPMDvmhHRp5-1">
                    <mxGeometry x="360" y="385" width="290" height="40" as="geometry"/>
                </mxCell>
                <mxCell id="kdSu3bQFjiPMDvmhHRp5-7" style="edgeStyle=orthogonalEdgeStyle;rounded=0;orthogonalLoop=1;jettySize=auto;html=1;exitX=1;exitY=0.5;exitDx=0;exitDy=0;fontSize=22;" edge="1" parent="kdSu3bQFjiPMDvmhHRp5-1" source="kdSu3bQFjiPMDvmhHRp5-8" target="kdSu3bQFjiPMDvmhHRp5-4">
                    <mxGeometry relative="1" as="geometry"/>
                </mxCell>
                <mxCell id="kdSu3bQFjiPMDvmhHRp5-8" value="/products/dashboards/pricing" style="rounded=1;whiteSpace=wrap;html=1;fontSize=22;fillColor=#f5f5f5;strokeColor=#666666;fontColor=#333333;" vertex="1" parent="kdSu3bQFjiPMDvmhHRp5-1">
                    <mxGeometry x="360" y="445" width="290" height="40" as="geometry"/>
                </mxCell>
                <mxCell id="kdSu3bQFjiPMDvmhHRp5-9" value="" style="rounded=1;whiteSpace=wrap;html=1;strokeColor=#000000;fontSize=31;fontColor=#000000;" vertex="1" parent="kdSu3bQFjiPMDvmhHRp5-1">
                    <mxGeometry x="350" y="610" width="590" height="130" as="geometry"/>
                </mxCell>
                <mxCell id="kdSu3bQFjiPMDvmhHRp5-10" value="Boat Home Page" style="rounded=0;whiteSpace=wrap;html=1;fontSize=23;align=center;fillColor=#ffe6cc;strokeColor=#d79b00;fontStyle=0" vertex="1" parent="kdSu3bQFjiPMDvmhHRp5-1">
                    <mxGeometry x="710" y="620" width="210" height="50" as="geometry"/>
                </mxCell>
                <mxCell id="kdSu3bQFjiPMDvmhHRp5-11" value="Boat Pricing Page" style="rounded=0;whiteSpace=wrap;html=1;fontSize=23;align=center;fillColor=#ffe6cc;strokeColor=#d79b00;fontStyle=0" vertex="1" parent="kdSu3bQFjiPMDvmhHRp5-1">
                    <mxGeometry x="710" y="680" width="210" height="50" as="geometry"/>
                </mxCell>
                <mxCell id="kdSu3bQFjiPMDvmhHRp5-12" style="edgeStyle=orthogonalEdgeStyle;rounded=0;orthogonalLoop=1;jettySize=auto;html=1;exitX=1;exitY=0.5;exitDx=0;exitDy=0;fontSize=22;" edge="1" parent="kdSu3bQFjiPMDvmhHRp5-1" source="kdSu3bQFjiPMDvmhHRp5-13" target="kdSu3bQFjiPMDvmhHRp5-10">
                    <mxGeometry relative="1" as="geometry"/>
                </mxCell>
                <mxCell id="kdSu3bQFjiPMDvmhHRp5-13" value="/products/boats" style="rounded=1;whiteSpace=wrap;html=1;fontSize=22;fillColor=#f5f5f5;strokeColor=#666666;fontColor=#333333;" vertex="1" parent="kdSu3bQFjiPMDvmhHRp5-1">
                    <mxGeometry x="360" y="625" width="290" height="40" as="geometry"/>
                </mxCell>
                <mxCell id="kdSu3bQFjiPMDvmhHRp5-14" style="edgeStyle=orthogonalEdgeStyle;rounded=0;orthogonalLoop=1;jettySize=auto;html=1;exitX=1;exitY=0.5;exitDx=0;exitDy=0;fontSize=22;" edge="1" parent="kdSu3bQFjiPMDvmhHRp5-1" source="kdSu3bQFjiPMDvmhHRp5-15" target="kdSu3bQFjiPMDvmhHRp5-11">
                    <mxGeometry relative="1" as="geometry"/>
                </mxCell>
                <mxCell id="kdSu3bQFjiPMDvmhHRp5-15" value="/products/boats/pricing" style="rounded=1;whiteSpace=wrap;html=1;fontSize=22;fillColor=#f5f5f5;strokeColor=#666666;fontColor=#333333;" vertex="1" parent="kdSu3bQFjiPMDvmhHRp5-1">
                    <mxGeometry x="360" y="685" width="290" height="40" as="geometry"/>
                </mxCell>
                <mxCell id="kdSu3bQFjiPMDvmhHRp5-19" style="edgeStyle=orthogonalEdgeStyle;rounded=0;orthogonalLoop=1;jettySize=auto;html=1;exitX=0;exitY=0.5;exitDx=0;exitDy=0;entryX=0;entryY=0.5;entryDx=0;entryDy=0;strokeWidth=4;fontSize=18;fontColor=#000000;" edge="1" parent="kdSu3bQFjiPMDvmhHRp5-1" source="kdSu3bQFjiPMDvmhHRp5-16" target="kdSu3bQFjiPMDvmhHRp5-8">
                    <mxGeometry relative="1" as="geometry">
                        <Array as="points">
                            <mxPoint x="320" y="555"/>
                            <mxPoint x="320" y="465"/>
                        </Array>
                    </mxGeometry>
                </mxCell>
                <mxCell id="kdSu3bQFjiPMDvmhHRp5-20" style="edgeStyle=orthogonalEdgeStyle;rounded=0;orthogonalLoop=1;jettySize=auto;html=1;exitX=0;exitY=0.5;exitDx=0;exitDy=0;entryX=0;entryY=0.5;entryDx=0;entryDy=0;strokeWidth=4;fontSize=18;fontColor=#000000;" edge="1" parent="kdSu3bQFjiPMDvmhHRp5-1" source="kdSu3bQFjiPMDvmhHRp5-16" target="kdSu3bQFjiPMDvmhHRp5-6">
                    <mxGeometry relative="1" as="geometry">
                        <Array as="points">
                            <mxPoint x="320" y="555"/>
                            <mxPoint x="320" y="405"/>
                        </Array>
                    </mxGeometry>
                </mxCell>
                <mxCell id="kdSu3bQFjiPMDvmhHRp5-16" value="Need to update our dashboard marketing project URL's" style="rounded=0;whiteSpace=wrap;html=1;strokeColor=#b85450;fontSize=18;fillColor=#f8cecc;fontStyle=1" vertex="1" parent="kdSu3bQFjiPMDvmhHRp5-1">
                    <mxGeometry x="441.72" y="520" width="406.56" height="70" as="geometry"/>
                </mxCell>
            </root>
        </mxGraphModel>
    </diagram>
    <diagram id="o5igFUAr64g8fhxLKJ6C" name="12 - mf">
        <mxGraphModel dx="1502" dy="926" grid="1" gridSize="10" guides="1" tooltips="1" connect="1" arrows="1" fold="1" page="1" pageScale="1" pageWidth="1920" pageHeight="1200" math="0" shadow="0">
            <root>
                <mxCell id="kBc1h1SJgBHgjN71jwlZ-0"/>
                <mxCell id="kBc1h1SJgBHgjN71jwlZ-1" parent="kBc1h1SJgBHgjN71jwlZ-0"/>
                <mxCell id="0wDh0AHeJ1o2jCzQQSzE-3" style="edgeStyle=orthogonalEdgeStyle;rounded=0;orthogonalLoop=1;jettySize=auto;html=1;exitX=0.5;exitY=1;exitDx=0;exitDy=0;strokeWidth=4;fontSize=18;fontColor=#000000;" parent="kBc1h1SJgBHgjN71jwlZ-1" source="0wDh0AHeJ1o2jCzQQSzE-0" target="0wDh0AHeJ1o2jCzQQSzE-1" edge="1">
                    <mxGeometry relative="1" as="geometry"/>
                </mxCell>
                <mxCell id="0wDh0AHeJ1o2jCzQQSzE-0" value="Need to update our dashboard marketing project URL's" style="rounded=0;whiteSpace=wrap;html=1;strokeColor=#666666;fontSize=18;fillColor=#f5f5f5;fontStyle=0;fontColor=#333333;" parent="kBc1h1SJgBHgjN71jwlZ-1" vertex="1">
                    <mxGeometry x="553" y="360" width="406.56" height="70" as="geometry"/>
                </mxCell>
                <mxCell id="0wDh0AHeJ1o2jCzQQSzE-1" value="&lt;b&gt;Remember, we need to assume that in 5-10 years &lt;i&gt;nobody will know how to use React&lt;/i&gt;&lt;/b&gt;" style="rounded=0;whiteSpace=wrap;html=1;strokeColor=#b85450;fontSize=18;fillColor=#f8cecc;fontStyle=0;" parent="kBc1h1SJgBHgjN71jwlZ-1" vertex="1">
                    <mxGeometry x="553" y="480" width="406.56" height="80" as="geometry"/>
                </mxCell>
            </root>
        </mxGraphModel>
    </diagram>
    <diagram id="8qJMt6mmaIuy5-DJqaYp" name="13 - routes">
        <mxGraphModel dx="1502" dy="926" grid="1" gridSize="10" guides="1" tooltips="1" connect="1" arrows="1" fold="1" page="1" pageScale="1" pageWidth="1920" pageHeight="1200" math="0" shadow="0">
            <root>
                <mxCell id="ZeNsXoYBSpJCcZNfymDm-0"/>
                <mxCell id="ZeNsXoYBSpJCcZNfymDm-1" parent="ZeNsXoYBSpJCcZNfymDm-0"/>
                <mxCell id="GTcItKBTxJlnJlFvy2Oq-0" value="" style="rounded=1;whiteSpace=wrap;html=1;strokeColor=#000000;fontSize=31;fontColor=#000000;" parent="ZeNsXoYBSpJCcZNfymDm-1" vertex="1">
                    <mxGeometry x="830" y="400" width="410" height="130" as="geometry"/>
                </mxCell>
                <mxCell id="GTcItKBTxJlnJlFvy2Oq-1" value="Home Page" style="rounded=0;whiteSpace=wrap;html=1;fontSize=23;align=center;fillColor=#dae8fc;strokeColor=#6c8ebf;fontStyle=0" parent="ZeNsXoYBSpJCcZNfymDm-1" vertex="1">
                    <mxGeometry x="1010" y="410" width="210" height="50" as="geometry"/>
                </mxCell>
                <mxCell id="GTcItKBTxJlnJlFvy2Oq-2" value="Pricing Page" style="rounded=0;whiteSpace=wrap;html=1;fontSize=23;align=center;fillColor=#dae8fc;strokeColor=#6c8ebf;fontStyle=0" parent="ZeNsXoYBSpJCcZNfymDm-1" vertex="1">
                    <mxGeometry x="1010" y="470" width="210" height="50" as="geometry"/>
                </mxCell>
                <mxCell id="GTcItKBTxJlnJlFvy2Oq-3" style="edgeStyle=orthogonalEdgeStyle;rounded=0;orthogonalLoop=1;jettySize=auto;html=1;exitX=1;exitY=0.5;exitDx=0;exitDy=0;fontSize=22;" parent="ZeNsXoYBSpJCcZNfymDm-1" source="GTcItKBTxJlnJlFvy2Oq-4" target="GTcItKBTxJlnJlFvy2Oq-1" edge="1">
                    <mxGeometry relative="1" as="geometry"/>
                </mxCell>
                <mxCell id="GTcItKBTxJlnJlFvy2Oq-4" value="/" style="rounded=1;whiteSpace=wrap;html=1;fontSize=22;fillColor=#f5f5f5;strokeColor=#666666;fontColor=#333333;" parent="ZeNsXoYBSpJCcZNfymDm-1" vertex="1">
                    <mxGeometry x="850" y="415" width="100" height="40" as="geometry"/>
                </mxCell>
                <mxCell id="GTcItKBTxJlnJlFvy2Oq-5" style="edgeStyle=orthogonalEdgeStyle;rounded=0;orthogonalLoop=1;jettySize=auto;html=1;exitX=1;exitY=0.5;exitDx=0;exitDy=0;fontSize=22;" parent="ZeNsXoYBSpJCcZNfymDm-1" source="GTcItKBTxJlnJlFvy2Oq-6" target="GTcItKBTxJlnJlFvy2Oq-2" edge="1">
                    <mxGeometry relative="1" as="geometry"/>
                </mxCell>
                <mxCell id="GTcItKBTxJlnJlFvy2Oq-6" value="/pricing" style="rounded=1;whiteSpace=wrap;html=1;fontSize=22;fillColor=#f5f5f5;strokeColor=#666666;fontColor=#333333;" parent="ZeNsXoYBSpJCcZNfymDm-1" vertex="1">
                    <mxGeometry x="850" y="475" width="100" height="40" as="geometry"/>
                </mxCell>
                <mxCell id="GTcItKBTxJlnJlFvy2Oq-7" value="Container" style="rounded=0;whiteSpace=wrap;html=1;fontSize=30;align=center;fillColor=#e1d5e7;strokeColor=#9673a6;fontStyle=1" parent="ZeNsXoYBSpJCcZNfymDm-1" vertex="1">
                    <mxGeometry x="500" y="358.75" width="270" height="50" as="geometry"/>
                </mxCell>
                <mxCell id="GTcItKBTxJlnJlFvy2Oq-11" style="edgeStyle=orthogonalEdgeStyle;rounded=0;orthogonalLoop=1;jettySize=auto;html=1;exitX=1;exitY=0.5;exitDx=0;exitDy=0;strokeWidth=4;fontSize=21;fontColor=#000000;" parent="ZeNsXoYBSpJCcZNfymDm-1" source="GTcItKBTxJlnJlFvy2Oq-8" target="GTcItKBTxJlnJlFvy2Oq-0" edge="1">
                    <mxGeometry relative="1" as="geometry"/>
                </mxCell>
                <mxCell id="GTcItKBTxJlnJlFvy2Oq-8" value="&lt;span style=&quot;font-weight: normal ; font-size: 18px&quot;&gt;&lt;i style=&quot;font-size: 18px&quot;&gt;I'll show the marketing app and just omit the&lt;br&gt;'/products/dashboards'&lt;br&gt;part of the URL&lt;/i&gt;&lt;/span&gt;" style="rounded=0;whiteSpace=wrap;html=1;fontSize=18;align=center;fillColor=#e1d5e7;strokeColor=#9673a6;fontStyle=1" parent="ZeNsXoYBSpJCcZNfymDm-1" vertex="1">
                    <mxGeometry x="500" y="408.75" width="270" height="112.5" as="geometry"/>
                </mxCell>
                <mxCell id="GTcItKBTxJlnJlFvy2Oq-10" style="edgeStyle=orthogonalEdgeStyle;rounded=0;orthogonalLoop=1;jettySize=auto;html=1;exitX=0.5;exitY=1;exitDx=0;exitDy=0;strokeWidth=4;fontSize=21;fontColor=#000000;" parent="ZeNsXoYBSpJCcZNfymDm-1" source="GTcItKBTxJlnJlFvy2Oq-9" target="GTcItKBTxJlnJlFvy2Oq-7" edge="1">
                    <mxGeometry relative="1" as="geometry"/>
                </mxCell>
                <mxCell id="GTcItKBTxJlnJlFvy2Oq-9" value="User navigates to /products/dashboards/pricing" style="rounded=1;whiteSpace=wrap;html=1;strokeColor=#000000;fontSize=21;fontColor=#000000;fontStyle=2" parent="ZeNsXoYBSpJCcZNfymDm-1" vertex="1">
                    <mxGeometry x="490" y="228.75" width="290" height="90" as="geometry"/>
                </mxCell>
            </root>
        </mxGraphModel>
    </diagram>
</mxfile>